<svg width="305" height="513" viewBox="0 0 305 513" xmlns="http://www.w3.org/2000/svg" xmlns:xlink="http://www.w3.org/1999/xlink"><title>mascot</title><defs><path id="a" d="M0 0h339v513H0z"/><path id="c" d="M0 .668h304.366V712.28H0"/><path id="e" d="M0 .668h304.366V712.28H0V.67z"/><path id="g" d="M1.114 1.258c0 16.916 14.925 30.632 33.336 30.632 18.41 0 33.336-13.716 33.336-30.632H1.114z"/></defs><g fill="none" fill-rule="evenodd"><mask id="b" fill="#fff"><use xlink:href="#a"/></mask><use fill-opacity="0" fill="#D8D8D8" xlink:href="#a"/><g mask="url(#b)"><path d="M265.598 440.22l-66.606-51.677c-10.266-7.965-12.103-22.707-4.102-32.927 7.998-10.22 22.806-12.05 33.072-4.084l66.607 51.677c10.264 7.964 12.1 22.706 4.103 32.926-8 10.22-22.81 12.048-33.075 4.083" fill="#B32C26"/><mask id="d" fill="#fff"><use xlink:href="#c"/></mask><path d="M300.403 435.22l-27.45 38.967-39.208-26.036 27.447-38.966c7.222-10.78 21.855-13.69 32.683-6.5 10.828 7.19 13.75 21.757 6.528 32.536" fill="#B32C26" mask="url(#d)"/><path d="M263.545 465.663l-8.41-5.048c-11.14-6.694-25.625-3.128-32.35 7.967-7.843 12.944-3.662 29.767 9.34 37.575l5.043 3.03c12.074 7.253 27.766 3.387 35.05-8.63 7.28-12.022 3.4-27.643-8.673-34.894" fill="#F3BB97"/><path d="M289.38 452.015l-8.718 13.01-39.21-26.036 8.717-13.012 39.21 26.037z" fill="#F1C425"/><path d="M92.91 525.82h161.033s15.71-93.844-29.458-175.958-131.576 0-131.576 0V525.82z" fill="#E93A31"/><path d="M35.848 435.54l72.076-43.803c11.11-6.752 14.617-21.19 7.836-32.248-6.782-11.06-21.285-14.553-32.395-7.8l-72.076 43.8C.18 402.243-3.326 416.68 3.453 427.74c6.782 11.06 21.285 14.552 32.394 7.8" fill="#E93A31"/><path d="M145.89 341.836L73.28 359l-2.594-10.884 72.605-17.164 2.596 10.884z" fill="#F1C425"/><path d="M90.48 354.935l-5.734 1.355-2.594-10.884 5.73-1.355 2.597 10.885zM101.943 352.225l-5.733 1.355-2.594-10.884 5.73-1.355 2.597 10.885zM113.408 349.515l-5.734 1.355-2.593-10.884 5.73-1.355 2.598 10.885z" fill="#ECA21F"/><path d="M164.726 351.175l74.34 6.515.982-11.142-74.337-6.514-.984 11.14z" fill="#F1C425"/><path d="M221.457 356.147l5.87.515.984-11.144-5.867-.512-.986 11.14zM209.72 355.118l5.868.515.986-11.143-5.868-.513-.986 11.14zM197.982 354.09l5.868.514.986-11.143-5.868-.512-.986 11.14z" fill="#ECA21F"/><path d="M175.39 359.638s33.137 54.845 17.61 166.18" stroke="#B32C26" stroke-width="2"/><path d="M147.896 412.424a171.778 171.778 0 0 1 74.625 0c.86-3.816 1.714-7.63 2.572-11.447a183.64 183.64 0 0 0-79.767 0c.858 3.817 1.713 7.63 2.57 11.447M147.896 451.526a477.545 477.545 0 0 1 74.625 0l.927-11.693a489.275 489.275 0 0 0-76.476 0c.31 3.898.618 7.795.926 11.693" fill="#ECA21F"/><path d="M208.774 406.56c0 8.637 7.034 15.64 15.71 15.64 8.677 0 15.71-7.003 15.71-15.64 0-8.64-7.033-15.64-15.71-15.64-8.676 0-15.71 7-15.71 15.64" fill="#F1C425"/><path d="M224.485 416.335c5.414 0 9.818-4.385 9.818-9.775 0-5.39-4.404-9.777-9.818-9.777s-9.82 4.387-9.82 9.777 4.406 9.775 9.82 9.775" fill="#ECA21F"/><path d="M132.185 406.56c0 8.637 7.034 15.64 15.71 15.64 8.677 0 15.71-7.003 15.71-15.64 0-8.64-7.033-15.64-15.71-15.64-8.676 0-15.71 7-15.71 15.64" fill="#F1C425"/><path d="M147.896 416.335c5.414 0 9.818-4.385 9.818-9.775 0-5.39-4.404-9.777-9.818-9.777s-9.82 4.387-9.82 9.777 4.406 9.775 9.82 9.775" fill="#ECA21F"/><path d="M208.774 445.66c0 8.64 7.034 15.64 15.71 15.64 8.677 0 15.71-7 15.71-15.64 0-8.637-7.033-15.64-15.71-15.64-8.676 0-15.71 7.003-15.71 15.64" fill="#F1C425"/><path d="M224.485 455.436c5.414 0 9.818-4.385 9.818-9.775 0-5.388-4.404-9.776-9.818-9.776s-9.82 4.388-9.82 9.777c0 5.39 4.406 9.776 9.82 9.776" fill="#ECA21F"/><path d="M132.185 445.66c0 8.64 7.034 15.64 15.71 15.64 8.677 0 15.71-7 15.71-15.64 0-8.637-7.033-15.64-15.71-15.64-8.676 0-15.71 7.003-15.71 15.64" fill="#F1C425"/><path d="M147.896 455.436c5.414 0 9.818-4.385 9.818-9.775 0-5.388-4.404-9.776-9.818-9.776s-9.82 4.388-9.82 9.777c0 5.39 4.406 9.776 9.82 9.776" fill="#ECA21F"/><path d="M241.424 379.944L92.91 527.797l.02-63.556 127.597-127.026 20.897 42.73z" fill="#1A86CB"/><path d="M225.513 347.06L92.91 479.076l.022-10.195 127.596-127.027 4.985 5.208zM239.898 376.823L92.908 523.158v-10.765L236.56 369.997l3.338 6.826z" fill="#E5901A"/><mask id="f" fill="#fff"><use xlink:href="#e"/></mask><path d="M181.326 500.898h-90.89v-25.52h90.89v25.52z" fill="#ECA21F" mask="url(#f)"/><path d="M181.326 496.258h-90.89v-16.24h90.89v16.24z" fill="#06292D" mask="url(#f)"/><path d="M258.233 500.898h-41.95v-25.52h41.95v25.52z" fill="#ECA21F" mask="url(#f)"/><path d="M258.233 496.258h-41.95v-16.24h41.95v16.24z" fill="#06292D" mask="url(#f)"/><path d="M178.996 489.298c0 10.25 8.348 18.56 18.644 18.56 10.296 0 18.644-8.31 18.644-18.56 0-10.25-8.348-18.56-18.644-18.56-10.296 0-18.644 8.31-18.644 18.56" fill="#F1C425" mask="url(#f)"/><path d="M197.64 503.22c-7.712 0-13.983-6.244-13.983-13.922 0-7.677 6.27-13.92 13.983-13.92 7.712 0 13.983 6.243 13.983 13.92 0 7.678-6.27 13.92-13.983 13.92" fill="#ECA21F" mask="url(#f)"/><path d="M197.64 500.9c-6.425 0-11.653-5.205-11.653-11.602 0-6.396 5.228-11.6 11.653-11.6 6.425 0 11.652 5.204 11.652 11.6 0 6.397-5.227 11.6-11.652 11.6M181.326 503.218h-2.33v-30.16h2.33v30.16z" fill="#F1C425" mask="url(#f)"/><path d="M181.326 475.377h-9.322v-2.32h9.322v2.32zM181.326 503.218h-9.322v-2.32h9.322v2.32zM213.953 503.218h2.33v-30.16h-2.33v30.16z" fill="#F1C425" mask="url(#f)"/><path d="M213.953 475.377h9.323v-2.32h-9.323v2.32zM213.953 503.218h9.323v-2.32h-9.323v2.32z" fill="#F1C425" mask="url(#f)"/><path d="M70.808 502.345c-1.673 5.136 1.154 10.65 6.313 12.313l14.947 4.823c5.157 1.665 10.695-1.147 12.368-6.284 1.67-5.137-1.156-10.65-6.313-12.313l-14.946-4.824c-5.157-1.664-10.697 1.148-12.368 6.285" fill="#F1A076" mask="url(#f)"/><path d="M86.204 472.11l-6.943 6.913c-9.202 9.162-9.202 24.018 0 33.18 10.738 10.69 28.145 10.69 38.882 0l4.167-4.148c9.97-9.926 9.97-26.018 0-35.944-9.97-9.924-26.136-9.924-36.106 0" fill="#F3BB97" mask="url(#f)"/><path d="M7.12 432.924l63.647 61.794 33.33-33.177-63.652-61.794c-9.203-9.162-24.123-9.162-33.326 0-9.205 9.162-9.205 24.016 0 33.178" fill="#E93A31" mask="url(#f)"/><path d="M49.94 473.982l11.108 11.06 33.327-33.18-11.11-11.058-33.326 33.178z" fill="#F1C425" mask="url(#f)"/><path d="M145.537 56.35L178.164.667 210.79 56.35h-65.253z" fill="#ECA21F" mask="url(#f)"/><path d="M171.172 56.35h-32.627V9.948l32.627 46.402zM185.155 56.35h32.628V9.948L185.155 56.35z" fill="#ECA21F" mask="url(#f)"/><path d="M261.932 116.06c11.33 0 20.513 9.143 20.513 20.42v76.586h-20.513V179.88c0-8.46-6.89-15.32-15.386-15.32v-48.5h15.386zM74.742 116.06c-11.33 0-20.513 9.143-20.513 20.42v76.586H74.74V179.88c0-8.46 6.89-15.32 15.386-15.32v-48.5H74.742z" fill="#692C21" mask="url(#f)"/><path d="M91.41 220.724c0 14.1-11.48 25.53-25.643 25.53s-25.643-11.43-25.643-25.53c0-14.1 11.48-25.528 25.643-25.528s25.643 11.43 25.643 25.528M299.114 220.724c0 14.1-11.48 25.53-25.643 25.53-14.162 0-25.642-11.43-25.642-25.53 0-14.1 11.48-25.528 25.643-25.528s25.644 11.43 25.644 25.528" fill="#F1A076" mask="url(#f)"/><path d="M169.62 373.893c-58.066 0-105.135-46.86-105.135-104.665V136.48h210.27V269.23c0 57.806-47.07 104.665-105.136 104.665" fill="#F3BB97" mask="url(#f)"/><path d="M254.24 116.06c11.328 0 20.513 9.143 20.513 20.42v76.586H254.24V179.88c0-8.46-6.89-15.32-15.387-15.32v-48.5h15.386zM85 116.06c-11.33 0-20.514 9.143-20.514 20.42v76.586H85V179.88c0-8.46 6.888-15.32 15.385-15.32v-48.5H85z" fill="#692C21" mask="url(#f)"/><path d="M79.95 194.47H60.914v-60.675H79.95v60.674zM280.373 194.47H261.34v-60.675h19.033v60.674zM254.24 210.513v53.61c0 12.688-10.334 22.975-23.08 22.975-5.663 0-10.256-4.573-10.256-10.213 0-7.754-6.314-14.04-14.102-14.04h-74.365c-7.79 0-14.102 6.286-14.102 14.04 0 5.64-4.593 10.213-10.257 10.213-12.745 0-23.08-10.287-23.08-22.976v-53.61H64.487v63.82C64.486 332.14 111.556 379 169.618 379h.002c58.063 0 105.133-46.86 105.133-104.667v-63.82H254.24z" fill="#692C21" mask="url(#f)"/><path d="M202.954 281.992c0 16.918-14.924 30.633-33.335 30.633-18.41 0-33.335-13.715-33.335-30.633" fill="#EC816F" mask="url(#f)"/><path d="M193.98 150.522S86.282 156.585 77.307 130.1c-.43-2.127 0-34.463 0-34.463 0-22.56 18.37-40.846 41.026-40.846h164.113c0 48.643-39.607 95.732-88.466 95.732" fill="#692C21" mask="url(#f)"/><g transform="translate(135.17 280.736)"><mask id="h" fill="#fff"><use xlink:href="#g"/></mask><path d="M67.783 14.02H1.113V1.26h66.67V14.02z" fill="#FFF" mask="url(#h)"/></g><g><path d="M133.72 241.162c0 4.23-6.89 7.658-15.386 7.658-8.497 0-15.384-3.43-15.384-7.658 0-4.23 6.887-7.66 15.384-7.66s15.386 3.43 15.386 7.66M238.854 241.162c0 4.23-6.89 7.658-15.386 7.658-8.497 0-15.384-3.43-15.384-7.658 0-4.23 6.887-7.66 15.384-7.66s15.386 3.43 15.386 7.66" fill="#ECA488"/><path d="M139.13 218.686c0 6.406-5.22 11.6-11.654 11.6s-11.652-5.194-11.652-11.6 5.218-11.6 11.652-11.6c6.435 0 11.653 5.194 11.653 11.6" fill="#372A3F"/><path d="M133.198 216.4c0 2.514-2.05 4.553-4.575 4.553-2.526 0-4.575-2.04-4.575-4.554 0-2.516 2.05-4.556 4.575-4.556 2.526 0 4.575 2.04 4.575 4.555" fill="#FFF"/><path d="M199.917 218.686c0 6.406 5.218 11.6 11.652 11.6 6.434 0 11.652-5.194 11.652-11.6s-5.218-11.6-11.653-11.6c-6.435 0-11.653 5.194-11.653 11.6" fill="#372A3F"/><path d="M218.068 216.302c0 2.515-2.05 4.554-4.575 4.554-2.527 0-4.575-2.04-4.575-4.554 0-2.515 2.048-4.555 4.575-4.555 2.526 0 4.575 2.04 4.575 4.555" fill="#FFF"/><path d="M199.82 201.444h20.974c3.862 0 6.992-3.116 6.992-6.96 0-3.845-3.13-6.96-6.992-6.96H199.82c-3.862 0-6.992 3.115-6.992 6.96 0 3.844 3.13 6.96 6.992 6.96M139.226 201.444H118.25c-3.86 0-6.99-3.116-6.99-6.96 0-3.845 3.13-6.96 6.99-6.96h20.976c3.862 0 6.992 3.115 6.992 6.96 0 3.844-3.13 6.96-6.992 6.96" fill="#692C21"/><path d="M169.62 253.926c-8.498 0-15.387-6.86-15.387-15.318v-51.054h30.772v51.054c0 8.46-6.89 15.318-15.386 15.318" fill="#F1A076"/><path d="M169.62 243.714c-8.498 0-15.387-6.858-15.387-15.317v10.21c0 8.46 6.89 15.318 15.386 15.318 8.496 0 15.385-6.858 15.385-15.317v-10.21c0 8.458-6.89 15.316-15.386 15.316" fill="#F18B57"/></g></g></g></svg>