<?xml version="1.0" standalone="no"?>
<!DOCTYPE svg PUBLIC "-//W3C//DTD SVG 20010904//EN"
 "http://www.w3.org/TR/2001/REC-SVG-20010904/DTD/svg10.dtd">
<svg version="1.0" xmlns="http://www.w3.org/2000/svg"
 width="256.000000pt" height="256.000000pt" viewBox="0 0 256.000000 256.000000"
 preserveAspectRatio="xMidYMid meet">
<metadata>
Created by potrace 1.11, written by Peter Selinger 2001-2013
</metadata>
<g transform="translate(0.000000,256.000000) scale(0.100000,-0.100000)"
fill="#000000" stroke="none">
<path d="M2214 2296 c-264 -263 -273 -276 -240 -321 7 -10 26 -20 41 -22 25
-4 56 23 281 248 152 152 254 261 257 276 3 14 -3 34 -15 48 -40 52 -52 43
-324 -229z"/>
<path d="M1626 2463 c-1 -1 -34 -3 -74 -4 -40 -1 -107 -8 -149 -15 l-76 -14
-204 -202 c-388 -386 -962 -963 -1037 -1043 -70 -74 -78 -89 -78 -140 0 -60 5
-70 90 -157 163 -171 847 -850 871 -866 31 -21 118 -23 153 -4 14 9 317 306
671 661 623 624 645 648 652 691 4 25 9 54 12 65 10 47 9 399 -2 491 -12 108
-22 129 -87 192 l-34 33 -53 -50 c-50 -48 -53 -52 -57 -110 -5 -75 -30 -128
-84 -174 -146 -125 -370 -19 -370 175 0 127 106 228 239 228 36 0 47 6 96 54
l55 53 -54 51 c-30 28 -67 54 -82 57 -16 4 -34 8 -41 10 -24 8 -351 24 -357
18z m-14 -650 c99 -56 164 -138 183 -232 9 -48 9 -63 -7 -105 -35 -96 -121
-176 -213 -197 -48 -11 -63 -10 -110 5 -101 31 -200 133 -226 231 -30 111 42
242 166 302 41 19 61 23 112 19 34 -2 77 -13 95 -23z m-504 -335 c28 -28 20
-41 -126 -190 l-56 -57 49 -45 48 -46 93 90 c94 90 110 100 132 78 24 -24 11
-48 -76 -139 l-88 -93 54 -53 54 -54 103 100 c57 56 111 101 119 101 21 0 47
-40 37 -57 -11 -21 -211 -221 -244 -245 -26 -18 -29 -19 -52 -4 -32 21 -309
298 -330 330 -22 32 -18 37 126 184 109 109 132 125 157 100z m-315 -439 c22
-27 22 -42 -1 -62 -15 -14 -27 -15 -68 -8 -56 11 -97 -3 -126 -43 -30 -41 -27
-92 6 -107 25 -12 34 -9 181 67 28 15 61 28 75 30 14 3 30 6 36 8 5 2 23 -2
40 -10 90 -41 126 -129 89 -218 -21 -49 -89 -123 -137 -147 -56 -28 -132 -26
-175 7 -68 51 -29 94 67 74 62 -13 83 -8 127 33 22 20 39 69 34 97 -5 26 -33
50 -59 50 -13 0 -69 -22 -123 -50 -134 -68 -190 -67 -245 5 -53 70 -27 166 68
249 77 68 167 78 211 25z"/>
<path d="M1424 1726 c-40 -18 -81 -71 -87 -114 -16 -99 110 -235 214 -234 61
1 111 34 134 88 55 131 -132 318 -261 260z"/>
</g>
</svg>
