<svg xmlns="http://www.w3.org/2000/svg" viewBox="0 0 211 40"><path d="M22.9 19.8H11.5l5.7 10" fill="#ab7411"/><path d="M22.9 0l-5.7 9.9 5.7 9.9 5.8-9.9m5.7 9.9l-5.7 10 5.7 9.9h11.4m29.3-12.1C75.1 35.1 70 40 62.9 40s-12.2-4.9-12.2-12.4V9.9h6.7v17.8c0 3.6 2.2 5.9 5.5 5.9s5.5-2.3 5.5-5.9V9.9h6.7v17.7zM84.7 39.7V9.9h10.4c8.4 0 15.1 6.7 15.1 14.9s-6.7 14.9-15.1 14.9zm10.4-6.2c5 0 8.4-4 8.4-8.8 0-4.8-3.4-8.8-8.4-8.8h-3.7v17.6zM123.2 39.7h-6.8V9.9h6.7v29.8zm20.5-17.5c4.1 1.8 6.5 4.8 6.5 8.9 0 5.4-3.9 8.8-9.5 8.8-4.8 0-8.6-2-10.7-5.8l5.1-4.1c1.3 2.1 3.4 3.7 5.5 3.7 2 0 2.8-.8 2.8-2.1s-1-2.2-3.5-3.3l-1.7-.8c-4.5-2-7-5.3-7-9.3 0-5.2 4.3-8.6 9-8.6 3.3 0 5.8.8 8.3 3.7l-4.5 4.8c-1.5-1.8-2.4-2.2-3.8-2.2-1.1 0-2.3.7-2.3 2.1 0 1.6 1.3 2.4 4 3.6l1.8.6zm25.2-5.7v23.1h-6.8V16.5H155V9.9h21v6.6h-7.1zm11.5 8.3c0-8.4 6.8-15.2 15.2-15.2 8.4 0 15.2 6.8 15.2 15.2 0 8.4-6.8 15.2-15.2 15.2-8.4 0-15.2-6.8-15.2-15.2zm23.6 0c0-4.8-3.6-8.8-8.5-8.8-4.8 0-8.5 4-8.5 8.8 0 4.8 3.6 8.8 8.5 8.8 4.9-.1 8.5-4 8.5-8.8z" fill="#1e1e1e"/><path d="M11.5 19.8L0 39.7h11.5l5.7-9.9M28.7 9.9L17.2 29.8h11.5l5.7-10" fill="#f8b132"/></svg>