<?xml version="1.0" encoding="utf-8"?>
<!-- Generator: Adobe Illustrator 19.0.0, SVG Export Plug-In . SVG Version: 6.00 Build 0)  -->
<svg version="1.1" id="Layer_1" xmlns="http://www.w3.org/2000/svg" xmlns:xlink="http://www.w3.org/1999/xlink" x="0px" y="0px"
	 viewBox="0 0 653.9 132.1" style="enable-background:new 0 0 653.9 132.1;" xml:space="preserve">
<style type="text/css">
	.st0{fill:#008AFF;}
</style>
<g id="XMLID_1_">
	<rect id="XMLID_15_" x="0" y="38.8" class="st0" width="21.8" height="76.2"/>
	<path class="st0" d="M521.6,13.1h-22v30.5c-6.7-5-18.3-6.5-23.3-6.5c-21.4,0-34.7,17.1-34.7,39.8c0,22.6,18.6,39.8,40,39.8
		c33.9,0,40-24.2,40-35.8C521.6,56.5,521.6,13.1,521.6,13.1z M482,96.2c-11.7,0-17.3-7.8-17.3-19.2c0-11.4,5.6-21.1,17.3-21.1
		c8.3,0,14,3.4,17.6,6.2c0,6.9,0.1,13.8,0.1,14.9C499.7,88.4,493.8,96.2,482,96.2z"/>
	<circle id="XMLID_12_" class="st0" cx="10.9" cy="17.6" r="10.9"/>
	<path id="XMLID_11_" class="st0" d="M71.8,37.1c-0.2,0-0.4,0-0.6,0c-0.2,0-0.4,0-0.6,0c-5.4,0-35.2,2.2-35.2,39c0,12.7,0,39,0,39
		h21.8V73.2c0-9.5,6.2-14.7,14-15.1c7.7,0.4,14,5.6,14,15.1V115h21.8c0,0,0-26.2,0-39C106.9,39.3,77.2,37.1,71.8,37.1z"/>
	<path id="XMLID_10_" class="st0" d="M330.4,80.4c0,9.5-6.2,14.7-14,15.1c-7.7-0.4-14-5.6-14-15.1V38.7h-21.8c0,0,0,26.2,0,39
		c0,36.8,29.8,39,35.2,39c0.2,0,0.4,0,0.6,0c0.2,0,0.4,0,0.6,0c5.4,0,35.2-2.2,35.2-39c0-12.7,0-39,0-39h-21.8V80.4z"/>
	<path id="XMLID_9_" class="st0" d="M398.4,37.1c-0.2,0-0.4,0-0.6,0c-0.2,0-0.4,0-0.6,0c-5.4,0-35.2,2.2-35.2,39c0,12.7,0,39,0,39
		h21.8V73.2c0-9.5,6.2-14.7,14-15.1c7.7,0.4,14,5.6,14,15.1V115h21.8c0,0,0-26.2,0-39C433.6,39.3,403.8,37.1,398.4,37.1z"/>
	<path id="XMLID_8_" class="st0" d="M271.5,69.6c-0.1-0.8-0.3-1.5-0.5-2.3c-0.1-0.5-0.3-1.1-0.5-1.6c-0.1-0.4-0.3-0.8-0.4-1.2
		c-0.3-0.7-0.6-1.5-0.9-2.2c-0.3-0.6-0.5-1.2-0.8-1.8c0-0.1-0.1-0.2-0.1-0.3c-0.1-0.3-0.3-0.5-0.4-0.7c-1.6-3.1-3.7-6-6.3-8.5
		c0,0,0,0,0,0c-0.2-0.1-0.3-0.3-0.5-0.4c-1.8-1.7-3.6-3.1-5.7-4.5l0,0c-3.9-2.5-8.2-4.3-13.1-5.1c-2.5-0.5-5.2-0.7-8-0.7
		c-1.6,0-3.1,0.1-4.6,0.2c-0.2,0-0.4,0.1-0.7,0.1c-1.2,0.2-2.3,0.3-3.5,0.6c-0.3,0.1-0.7,0.2-1,0.3c-8,1.9-15.5,6.1-22.2,12.7
		c-1,1-2,2.1-3,3.3c-1.4,1.6-2.8,3.3-4.2,5.1l-12.3,16c-1.2,1.8-2.5,3.5-3.8,5c-0.5,0.6-1,1.1-1.5,1.7c-0.5,0.6-1,1.1-1.5,1.6
		c-6.3,6.3-13.2,9.4-18.9,9.4c-4,0-7.4-1.1-10.3-3.3c-1-0.8-1.7-1.5-2.1-1.9c-0.4-0.4-0.7-0.8-1-1.2c-3.1-4.8-0.3-10.7,2.3-11.3
		c-2.7-0.7-5.8-7.1-1.3-12.4c0-0.1,0.6-0.6,0.8-0.9c3.2-2.9,7-4.4,11.7-4.4c6.1,0,15.4,5.6,22.1,12.8c0,0,0.4-0.5,1-1.3h0l10.8-14
		c0.1-0.1,0.2-0.3,0.3-0.4c0-0.1,0.1-0.1,0.1-0.1h0c0.3-0.4,0.5-0.7,0.8-1.1c-8.7-9.1-20.2-14.9-31.2-16.2c-1.5-0.2-3.1-0.3-4.6-0.3
		c-6.1,0-11.6,1.1-16.5,3.1c0,0,0,0,0,0v-0.9c0,0,0,0,0,0V0h-21.8v77.5l0,0c0,0.1,0,0.1,0,0.2c0,0.3,0,0.6,0,0.9
		c0,3,0.3,5.8,0.8,8.6c0.2,0.7,0.3,1.5,0.5,2.3c0.1,0.5,0.3,1.1,0.5,1.6c0.1,0.4,0.2,0.8,0.4,1.2c0.3,0.7,0.6,1.5,0.9,2.2
		c0.2,0.6,0.5,1.2,0.8,1.8c0,0.1,0.1,0.2,0.2,0.3c0.1,0.3,0.3,0.5,0.4,0.7c1.6,3.1,3.7,5.9,6.3,8.5c0,0,0,0,0,0
		c0.1,0.2,0.3,0.3,0.5,0.4c1.8,1.7,3.6,3.1,5.7,4.4l0,0c3.9,2.5,8.2,4.3,13.1,5.1c2.5,0.5,5.2,0.7,8,0.7c1.6,0,3.1-0.1,4.6-0.2
		c0.2,0,0.4-0.1,0.6-0.1c1.2-0.2,2.4-0.3,3.5-0.6c0.3-0.1,0.6-0.2,1-0.2c8-1.9,15.4-6.1,22.1-12.7c1-1,2.1-2.1,3-3.3
		c1.4-1.6,2.8-3.2,4.2-5.1l12.3-16c1.2-1.8,2.5-3.5,3.7-5c0.5-0.6,1-1.2,1.5-1.7c0.5-0.6,1-1.1,1.6-1.6c6.3-6.2,13.1-9.4,18.9-9.4
		c4,0,7.4,1.1,10.3,3.3c1,0.8,1.7,1.5,2.1,1.9c0.4,0.4,0.7,0.8,1,1.2c3.1,4.9,0.3,10.7-2.2,11.3c2.7,0.7,5.8,7,1.3,12.4
		c0,0-0.6,0.6-0.8,0.9c-3.1,2.9-7,4.4-11.7,4.4c-6.1,0-15.4-5.6-22.1-12.8c0,0-0.3,0.5-0.9,1.2h0l-10.8,14c-0.1,0.1-0.2,0.3-0.3,0.4
		c-0.1,0-0.1,0.1-0.1,0.2c0,0,0,0,0,0c-0.3,0.3-0.5,0.7-0.8,1.1c8.7,9.1,20.2,14.9,31.2,16.2c1.5,0.2,3.1,0.3,4.6,0.3
		c6.2,0,11.6-1.1,16.5-3.1c0.6-0.3,1.2-0.6,1.9-0.9c0.2-0.1,0.3-0.2,0.5-0.3c0.5-0.3,1-0.5,1.4-0.8c2.6-1.5,5.1-3.3,7.2-5.5
		c0,0,0,0,0,0c3.5-3.5,6.1-7.5,7.9-12c0.1-0.3,0.2-0.6,0.3-1c0.2-0.6,0.4-1.2,0.6-1.8c0.2-0.6,0.4-1.2,0.5-1.8
		c0.1-0.3,0.1-0.5,0.2-0.8c0.7-3.1,1.2-6.4,1.2-9.9c0,0,0,0,0,0c0,0,0-0.1,0-0.1c0,0,0,0,0,0c0-0.1,0-0.1,0-0.1c0,0,0-0.1,0-0.1
		c0,0,0-0.1,0-0.1C272.3,75.2,272,72.4,271.5,69.6z"/>
	<path class="st0" d="M562.5,70.9c2.8,1.2,5.2,2.8,7.3,4.9c2.1,2.1,3.8,4.5,5,7.3c1.2,2.8,1.8,5.9,1.8,9.2c0,3.3-0.6,6.3-1.8,9.1
		c-1.2,2.8-2.9,5.2-5,7.2c-2.1,2-4.5,3.6-7.3,4.8c-2.8,1.2-5.8,1.8-9,1.8s-6.1-0.6-8.9-1.8c-2.8-1.2-5.2-2.8-7.2-4.8
		c-2.1-2-3.7-4.5-4.9-7.2c-1.2-2.8-1.8-5.8-1.8-9.1c0-3.3,0.6-6.3,1.8-9.2c1.2-2.8,2.8-5.2,4.9-7.3c2-2.1,4.5-3.7,7.2-4.9
		c2.8-1.2,5.7-1.7,8.9-1.7S559.7,69.8,562.5,70.9z M557.9,103.9c1.3-0.6,2.5-1.4,3.6-2.5c1-1.1,1.8-2.4,2.4-3.9
		c0.6-1.5,0.9-3.2,0.9-5.1c0-1.9-0.3-3.6-0.9-5.2c-0.6-1.6-1.4-2.9-2.4-4c-1-1.1-2.2-2-3.6-2.6c-1.4-0.6-2.8-0.9-4.3-0.9
		c-1.6,0-3,0.3-4.4,0.9c-1.4,0.6-2.6,1.5-3.6,2.6c-1,1.1-1.8,2.5-2.4,4c-0.6,1.6-0.9,3.3-0.9,5.2c0,1.8,0.3,3.5,0.9,5.1
		c0.6,1.5,1.4,2.8,2.4,3.9c1,1.1,2.2,1.9,3.6,2.5c1.4,0.6,2.9,0.9,4.4,0.9C555.1,104.8,556.5,104.5,557.9,103.9z"/>
	<path class="st0" d="M606.9,80.1c-3.9-0.6-7-0.1-9.4,1.6c-2.4,1.6-3.6,4.1-3.6,7.1v25.2h-12.3V88.8c0-3.1,0.6-5.9,1.7-8.4
		c1.1-2.5,2.8-4.7,5-6.4c2.2-1.8,4.8-3,7.9-3.8c3.1-0.8,6.7-1,10.6-0.5V80.1z"/>
	<path class="st0" d="M653.9,109.8c0,3.4-0.5,6.5-1.6,9.3c-1,2.8-2.5,5.1-4.5,7c-2,1.9-4.3,3.4-7.1,4.5c-2.8,1-5.9,1.6-9.4,1.6
		c-2.6,0-5.2-0.4-7.5-1c-2.4-0.7-4.5-1.7-6.3-2.9c-1.9-1.2-3.4-2.8-4.7-4.5c-1.3-1.8-2.1-3.8-2.5-6h12.2c0.3,0.8,0.8,1.5,1.5,2.1
		c0.7,0.6,1.5,1.1,2.3,1.4c0.8,0.4,1.7,0.6,2.6,0.8c0.9,0.2,1.7,0.2,2.5,0.2c3.9,0,6.8-1.1,8.7-3.4c1.8-2.2,2.7-5.2,2.7-8.9v-1.8
		c-1.6,1.6-3.5,2.7-5.7,3.5c-2.2,0.8-4.5,1.2-7,1.2c-2.9,0-5.6-0.6-8.1-1.7c-2.5-1.1-4.7-2.7-6.6-4.6c-1.9-1.9-3.4-4.2-4.5-6.8
		c-1.1-2.6-1.7-5.4-1.7-8.4c0-3,0.6-5.8,1.7-8.5c1.1-2.7,2.6-5,4.6-6.9c2-2,4.3-3.5,7-4.7c2.7-1.1,5.8-1.7,9.1-1.7
		c3.3,0,6.3,0.6,9,1.7c2.7,1.1,5.1,2.7,7.1,4.7c2,2,3.5,4.3,4.6,6.9c1.1,2.6,1.7,5.5,1.7,8.5V109.8z M641.9,86.5
		c-0.6-1.4-1.4-2.7-2.4-3.8c-1-1.1-2.2-1.9-3.6-2.5c-1.3-0.6-2.8-0.9-4.3-0.9s-3,0.3-4.3,0.9c-1.4,0.6-2.6,1.4-3.6,2.5
		c-1,1.1-1.8,2.3-2.4,3.8c-0.6,1.4-0.9,3-0.9,4.7c0,1.7,0.3,3.2,0.9,4.6c0.6,1.4,1.4,2.6,2.4,3.7c1,1.1,2.2,1.9,3.6,2.5
		c1.4,0.6,2.8,0.9,4.3,0.9s3-0.3,4.3-0.9c1.4-0.6,2.6-1.4,3.6-2.5c1-1,1.8-2.3,2.4-3.7c0.6-1.4,0.9-2.9,0.9-4.5
		C642.8,89.5,642.5,88,641.9,86.5z"/>
	<path id="XMLID_2_" class="st0" d="M530.6,110.3c0-2.7-2.2-4.9-4.9-4.9c-2.7,0-4.9,2.2-4.9,4.9c0,2.7,2.2,4.9,4.9,4.9
		C528.4,115.2,530.6,113,530.6,110.3z"/>
</g>
</svg>
