<?xml version="1.0" encoding="utf-8"?>
<!-- Generator: Adobe Illustrator 19.0.0, SVG Export Plug-In . SVG Version: 6.00 Build 0)  -->
<svg version="1.1" id="Layer_1" xmlns="http://www.w3.org/2000/svg" xmlns:xlink="http://www.w3.org/1999/xlink" x="0px" y="0px"
	 viewBox="0 0 128 35" enable-background="new 0 0 128 35" xml:space="preserve">
<g id="XMLID_441_">
	<g id="XMLID_458_">
		<path id="XMLID_462_" fill="#1B8CA2" d="M113.9,10.2c-2.8,0-5.2,2.3-5.2,5.2c0,2.8,2.3,5.2,5.2,5.2s5.2-2.3,5.2-5.2
			C119,12.5,116.7,10.2,113.9,10.2z"/>
		<path id="XMLID_459_" fill="#1B8CA2" d="M113.9,1.9c-7.4,0-13.4,6-13.4,13.4c0,7.4,6,13.4,13.4,13.4c7.4,0,13.4-6,13.4-13.4
			C127.3,7.9,121.3,1.9,113.9,1.9z M113.9,23.4c-4.4,0-8-3.6-8-8c0-4.4,3.6-8,8-8c4.4,0,8,3.6,8,8C121.9,19.8,118.3,23.4,113.9,23.4
			z"/>
	</g>
	<path id="XMLID_455_" fill="#1B8CA2" d="M7.9,7.3c-1.1,0-2.1,0.2-3.1,0.6C2,9,0.4,11.7,0.4,15.5c0,2.3,0.7,4.3,2,5.7
		c0.9,1,2.6,2.3,5.4,2.3c1.1,0,2.1-0.2,3-0.6c2.8-1.2,4.3-3.9,4.3-7.5c0-1.3-0.2-2.4-0.5-3.4C13.7,9,11.3,7.3,7.9,7.3z M12.6,15.4
		c0,0.9-0.1,1.7-0.3,2.4c-0.6,2.1-2.1,3.2-4.4,3.2c-0.8,0-1.4-0.1-2-0.4C4,19.8,3,18,3,15.5c0-0.9,0.1-1.7,0.4-2.5
		C3.9,11.5,5,9.7,7.9,9.7C11.8,9.7,12.6,12.8,12.6,15.4z"/>
	<path id="XMLID_454_" fill="#1B8CA2" d="M22.5,7.3c-1.5,0-2.7,0.5-3.8,1.6V7.6h-2.6v15.5h2.6v-11c0.8-1.5,1.9-2.3,3.4-2.4
		c2,0,3,1.4,3,4.1v9.3h2.6v-9.8c0-2.4-0.9-3.8-1.7-4.6C25.3,8.1,24.1,7.3,22.5,7.3z"/>
	<path id="XMLID_451_" fill="#1B8CA2" d="M35.8,7.3c-2.4,0-4.4,0.8-6,2.4L29.6,10l1.6,1.7l0.3-0.2c1.3-1.2,2.7-1.7,4.2-1.7
		c1.9,0,2.8,1.2,2.8,4c-0.7-0.1-1.4-0.1-2.2-0.1c-4.5,0-7.1,1.9-7.1,5.2c0,0.6,0.1,1.2,0.4,1.8c0.7,1.8,2.4,2.8,4.7,2.8
		c0.5,0,0.9-0.1,1.4-0.2c1.1-0.3,2.1-0.8,2.9-1.4v1.2h2.6v-9.9C41.1,9.4,39.3,7.3,35.8,7.3z M38.5,16.1c0.1,0,0,2.6-0.1,2.8
		c-0.3,0.7-1.1,1.3-1.7,1.6c-0.7,0.4-1.5,0.6-2.3,0.6c-1.6,0-2.5-0.9-2.5-2.3c0-0.6,0.1-1,0.4-1.4c0.9-1.2,2.8-1.5,4.3-1.5
		C37,16,37.8,16,38.5,16.1z"/>
	<rect id="XMLID_450_" x="42" y="0.8" fill="#1B8CA2" width="2.6" height="22.4"/>
	<path id="XMLID_449_" fill="#1B8CA2" d="M68.5,5.3c1,0,1.7-0.7,1.7-1.7c0-1-0.7-1.7-1.7-1.7c-1,0-1.7,0.7-1.7,1.7
		C66.8,4.6,67.6,5.3,68.5,5.3z"/>
	<path id="XMLID_446_" fill="#1B8CA2" d="M51.4,27.2l7.1-17.5l-0.2,0.4H61V19c0,3.7,2.1,4.4,3.8,4.4c1,0,1.8-0.3,2.4-0.6l0.1,0v0.4
		h2.6V7.6h-2.5h-0.1h-3.7V3.5H61v4.1h-1.7h-0.8h-1.9L52.1,19L47.8,7.6H45l0.2,0.5c0.9,2.3,1.8,4.8,2.7,7.2c0.9,2.4,1.8,4.8,2.7,7.1
		l-2,4.8 M66.7,20.4l-0.4,0.2C65.8,20.9,65.4,21,65,21c-1.1,0-1.4-0.5-1.4-2.2v-8.8h3.7v12L66.7,20.4z"/>
	<path id="XMLID_445_" fill="#1B8CA2" d="M77.7,9.7c1.2,0,2.2,0.3,3.1,1l0.3,0.2l1.4-2l-0.3-0.2c-1.3-1-2.8-1.4-4.5-1.4
		c-1.1,0-2.1,0.2-3.1,0.6c-2.9,1.2-4.5,3.9-4.5,7.7c0,2.3,0.7,4.3,2,5.7c0.9,1,2.6,2.3,5.4,2.3c1.7,0,3.2-0.5,4.6-1.5l0.3-0.2
		l-1.3-2.2l-0.3,0.3c-0.9,0.8-2,1.1-3.2,1.1c-0.7,0-1.4-0.1-2-0.4c-1.8-0.8-2.8-2.6-2.8-5.1c0-0.9,0.1-1.7,0.3-2.5
		C73.7,11.5,74.9,9.7,77.7,9.7z"/>
	<path id="XMLID_442_" fill="#1B8CA2" d="M89.6,7.3c-2.4,0-4.4,0.8-6,2.4L83.3,10l1.6,1.7l0.3-0.2c1.3-1.2,2.7-1.7,4.2-1.7
		c1.9,0,2.8,1.2,2.8,4c-0.7-0.1-1.4-0.1-2.2-0.1c-4.5,0-7.1,1.9-7.1,5.2c0,0.6,0.1,1.2,0.4,1.8c0.7,1.8,2.4,2.8,4.7,2.8
		c0.5,0,0.9-0.1,1.4-0.2c1.1-0.3,2.1-0.8,2.9-1.4v1.2h2.6v-9.9C94.8,9.4,93,7.3,89.6,7.3z M92.2,16.1c0,0.4,0,0.8,0,1.2
		c0,0.6,0.1,1.4-0.2,1.9c-0.9,1.2-2.4,1.9-3.9,1.9c-1.6,0-2.5-0.9-2.5-2.3c0-0.6,0.1-1,0.4-1.4c0.9-1.2,2.8-1.5,4.3-1.5
		C90.8,16,91.5,16,92.2,16.1z"/>
</g>
<path id="XMLID_28_" fill="#1B8CA2" d="M0.5,25.7h3c1.2,0,2,0.2,2.6,0.5s0.8,0.9,0.8,1.6c0,0.5-0.1,0.9-0.4,1.2
	c-0.2,0.3-0.6,0.6-1,0.7v0.1c0.5,0.1,0.9,0.4,1.1,0.7S7,31.2,7,31.7c0,0.8-0.3,1.4-0.9,1.8c-0.6,0.4-1.4,0.7-2.4,0.7H0.5V25.7z
	 M2.8,29h0.7c0.3,0,0.6-0.1,0.8-0.2c0.2-0.1,0.3-0.3,0.3-0.6c0-0.5-0.4-0.7-1.1-0.7H2.8V29z M2.8,30.7v1.8h0.8
	c0.7,0,1.1-0.3,1.1-0.9c0-0.3-0.1-0.5-0.3-0.7c-0.2-0.2-0.5-0.2-0.8-0.2H2.8z"/>
<path id="XMLID_32_" fill="#1B8CA2" d="M13.3,34.2h-5v-8.5h5v1.8h-2.7v1.3h2.5v1.8h-2.5v1.6h2.7V34.2z"/>
<path id="XMLID_34_" fill="#1B8CA2" d="M19.2,34.2h-2.3v-6.6h-2.1v-1.9h6.4v1.9h-2.1V34.2z"/>
<path id="XMLID_36_" fill="#1B8CA2" d="M27.3,34.2l-0.4-1.6h-2.8l-0.4,1.6h-2.5l2.8-8.5H27l2.8,8.5H27.3z M26.4,30.7L26,29.3
	c-0.1-0.3-0.2-0.7-0.3-1.2c-0.1-0.5-0.2-0.8-0.2-1.1c0,0.2-0.1,0.5-0.2,1s-0.3,1.3-0.7,2.7H26.4z"/>
</svg>
