<?xml version="1.0" encoding="utf-8"?>
<!-- Generator: Adobe Illustrator 15.1.0, SVG Export Plug-In . SVG Version: 6.00 Build 0)  -->
<!DOCTYPE svg PUBLIC "-//W3C//DTD SVG 1.1//EN" "http://www.w3.org/Graphics/SVG/1.1/DTD/svg11.dtd">
<svg version="1.1" id="Шар_1" xmlns="http://www.w3.org/2000/svg" xmlns:xlink="http://www.w3.org/1999/xlink" x="0px" y="0px"
	 width="925.454px" height="161.992px" viewBox="0 0 925.454 161.992" enable-background="new 0 0 925.454 161.992"
	 xml:space="preserve">
<g>
	<path fill="#313131" d="M308.054,73.247c0-3.066-1.084-5.455-3.255-7.168c-2.171-1.711-5.983-3.484-11.438-5.316
		c-5.457-1.831-9.916-3.604-13.38-5.316c-11.271-5.535-16.904-13.141-16.904-22.817c0-4.817,1.403-9.069,4.21-12.753
		c2.808-3.684,6.781-6.549,11.918-8.602c5.137-2.051,10.91-3.076,17.322-3.076c6.25,0,11.855,1.115,16.814,3.346
		c4.957,2.23,8.811,5.404,11.557,9.527c2.749,4.121,4.123,8.83,4.123,14.126h-20.906c0-3.544-1.085-6.291-3.256-8.243
		c-2.17-1.951-5.107-2.927-8.811-2.927c-3.743,0-6.7,0.827-8.87,2.479c-2.171,1.653-3.255,3.755-3.255,6.302
		c0,2.23,1.193,4.252,3.583,6.063c2.39,1.812,6.591,3.684,12.604,5.614c6.012,1.932,10.951,4.014,14.813,6.242
		c9.397,5.416,14.097,12.883,14.097,22.4c0,7.605-2.867,13.579-8.602,17.92c-5.734,4.34-13.6,6.51-23.594,6.51
		c-7.049,0-13.432-1.264-19.145-3.793c-5.715-2.528-10.016-5.992-12.902-10.393s-4.331-9.468-4.331-15.202h21.026
		c0,4.658,1.203,8.094,3.613,10.304c2.409,2.211,6.322,3.315,11.738,3.315c3.465,0,6.201-0.747,8.213-2.24
		C307.048,78.055,308.054,75.956,308.054,73.247z"/>
	<path fill="#313131" d="M402.275,59.449h-32.973v20.786h38.945v16.128h-59.912V9.393h60.031V25.58h-39.064v18.338h32.973V59.449z"
		/>
	<path fill="#313131" d="M457.667,65.6h-11.35v30.763h-20.966V9.393h34.227c10.313,0,18.378,2.287,24.192,6.861
		c5.812,4.574,8.721,11.039,8.721,19.393c0,6.047-1.225,11.059-3.674,15.037c-2.449,3.977-6.281,7.2-11.498,9.666l18.158,35.116
		v0.896h-22.459L457.667,65.6z M446.318,49.473h13.261c3.981,0,6.979-1.047,8.99-3.144s3.017-5.021,3.017-8.773
		c0-3.751-1.016-6.696-3.047-8.833c-2.031-2.134-5.018-3.203-8.96-3.203h-13.261V49.473z"/>
	<path fill="#313131" d="M534.685,66.855v29.508h-20.967V9.393h34.705c6.65,0,12.533,1.225,17.65,3.674
		c5.117,2.447,9.08,5.934,11.887,10.453c2.809,4.52,4.211,9.646,4.211,15.381c0,8.48-3.037,15.261-9.108,20.338
		c-6.073,5.078-14.406,7.616-24.997,7.616H534.685z M534.685,50.667h13.738c4.062,0,7.157-1.014,9.289-3.045
		c2.129-2.031,3.195-4.898,3.195-8.602c0-4.062-1.096-7.308-3.287-9.736c-2.189-2.43-5.176-3.664-8.959-3.704h-13.977V50.667z"/>
	<path fill="#0177FF" d="M646.764,73.247c0-3.066-1.085-5.455-3.255-7.168c-2.172-1.711-5.984-3.484-11.439-5.316
		c-5.455-1.831-9.916-3.604-13.379-5.316c-11.271-5.535-16.905-13.141-16.905-22.817c0-4.817,1.403-9.069,4.212-12.753
		c2.807-3.684,6.779-6.549,11.916-8.602c5.137-2.051,10.91-3.076,17.322-3.076c6.25,0,11.857,1.115,16.814,3.346
		s8.811,5.404,11.559,9.527c2.747,4.121,4.121,8.83,4.121,14.126h-20.906c0-3.544-1.085-6.291-3.255-8.243
		c-2.171-1.951-5.106-2.927-8.81-2.927c-3.744,0-6.701,0.827-8.871,2.479c-2.172,1.653-3.256,3.755-3.256,6.302
		c0,2.23,1.194,4.252,3.584,6.063c2.389,1.812,6.59,3.684,12.604,5.614c6.012,1.932,10.951,4.014,14.814,6.242
		c9.396,5.416,14.096,12.883,14.096,22.4c0,7.605-2.867,13.579-8.602,17.92c-5.734,4.34-13.599,6.51-23.594,6.51
		c-7.049,0-13.432-1.264-19.145-3.793c-5.715-2.528-10.016-5.992-12.902-10.393s-4.33-9.468-4.33-15.202h21.025
		c0,4.658,1.203,8.094,3.614,10.304c2.409,2.211,6.321,3.315,11.737,3.315c3.465,0,6.201-0.747,8.213-2.24
		C645.757,78.055,646.764,75.956,646.764,73.247z"/>
	<path fill="#0177FF" d="M755.32,25.58h-26.104v70.783H708.25V25.58h-25.625V9.393h72.695V25.58z"/>
	<path fill="#0177FF" d="M814.953,80.116h-28.73l-5.017,16.247h-22.399l31.896-86.97h19.711l32.137,86.97h-22.52L814.953,80.116z
		 M791.24,63.928h18.697l-9.379-30.164L791.24,63.928z"/>
	<path fill="#0177FF" d="M918.552,25.58h-26.104v70.783h-20.967V25.58h-25.625V9.393h72.695V25.58z"/>
</g>
<g>
	<path fill="#313131" d="M272.673,132.911h-7.807v13.443h-4.406V113.12h11.002c3.744,0,6.623,0.853,8.639,2.557
		c2.018,1.705,3.025,4.186,3.025,7.441c0,2.07-0.559,3.873-1.678,5.41s-2.675,2.686-4.668,3.445l7.807,14.107v0.273h-4.701
		L272.673,132.911z M264.867,129.327h6.732c2.176,0,3.907-0.564,5.193-1.692c1.285-1.128,1.928-2.638,1.928-4.527
		c0-2.059-0.611-3.636-1.836-4.733s-2.994-1.654-5.307-1.67h-6.711V129.327z"/>
	<path fill="#313131" d="M298.853,146.811c-3.348,0-6.071-1.1-8.172-3.298c-2.1-2.199-3.149-5.14-3.149-8.823v-0.775
		c0-2.45,0.468-4.638,1.403-6.562c0.936-1.926,2.245-3.432,3.927-4.52c1.681-1.088,3.503-1.633,5.466-1.633
		c3.211,0,5.707,1.059,7.488,3.174c1.779,2.115,2.67,5.144,2.67,9.084v1.758h-16.73c0.06,2.435,0.771,4.402,2.133,5.9
		c1.361,1.5,3.094,2.248,5.193,2.248c1.491,0,2.754-0.304,3.789-0.912s1.94-1.416,2.717-2.42l2.579,2.009
		C306.096,145.221,302.992,146.811,298.853,146.811z M298.328,124.67c-1.704,0-3.134,0.62-4.291,1.859
		c-1.156,1.241-1.871,2.979-2.146,5.217h12.372v-0.32c-0.122-2.146-0.699-3.809-1.734-4.986
		C301.494,125.26,300.093,124.67,298.328,124.67z"/>
	<path fill="#313131" d="M327.75,139.803c0-1.141-0.431-2.027-1.29-2.658c-0.859-0.632-2.357-1.177-4.496-1.633
		c-2.139-0.457-3.835-1.004-5.09-1.645c-1.256-0.638-2.184-1.398-2.785-2.281s-0.902-1.934-0.902-3.15
		c0-2.023,0.857-3.736,2.568-5.136c1.713-1.399,3.898-2.101,6.562-2.101c2.799,0,5.07,0.724,6.813,2.169
		c1.743,1.446,2.614,3.296,2.614,5.548H327.5c0-1.158-0.491-2.154-1.473-2.991s-2.217-1.255-3.709-1.255
		c-1.537,0-2.738,0.334-3.606,1.004s-1.302,1.545-1.302,2.625c0,1.02,0.404,1.788,1.211,2.306s2.264,1.013,4.37,1.483
		c2.108,0.473,3.815,1.035,5.126,1.689c1.307,0.654,2.277,1.441,2.909,2.362c0.631,0.921,0.948,2.043,0.948,3.366
		c0,2.207-0.884,3.976-2.648,5.307c-1.766,1.332-4.057,1.998-6.871,1.998c-1.978,0-3.729-0.35-5.249-1.05
		c-1.522-0.7-2.714-1.678-3.573-2.933c-0.859-1.256-1.289-2.615-1.289-4.075h4.223c0.076,1.415,0.643,2.538,1.701,3.367
		c1.057,0.829,2.453,1.243,4.188,1.243c1.598,0,2.881-0.322,3.846-0.97C327.267,141.748,327.75,140.884,327.75,139.803z"/>
	<path fill="#313131" d="M347.724,146.811c-3.348,0-6.072-1.1-8.172-3.298c-2.102-2.199-3.15-5.14-3.15-8.823v-0.775
		c0-2.45,0.468-4.638,1.403-6.562c0.937-1.926,2.245-3.432,3.927-4.52c1.681-1.088,3.504-1.633,5.467-1.633
		c3.21,0,5.705,1.059,7.486,3.174c1.78,2.115,2.671,5.144,2.671,9.084v1.758h-16.731c0.061,2.435,0.772,4.402,2.135,5.9
		c1.361,1.5,3.093,2.248,5.193,2.248c1.49,0,2.754-0.304,3.787-0.912c1.035-0.608,1.941-1.416,2.717-2.42l2.58,2.009
		C354.966,145.221,351.863,146.811,347.724,146.811z M347.199,124.67c-1.705,0-3.135,0.62-4.292,1.859
		c-1.155,1.241-1.872,2.979-2.146,5.217h12.371v-0.32c-0.121-2.146-0.699-3.809-1.734-4.986
		C350.363,125.26,348.963,124.67,347.199,124.67z"/>
	<path fill="#313131" d="M377.488,146.354c-0.243-0.486-0.441-1.354-0.594-2.602c-1.963,2.039-4.307,3.059-7.029,3.059
		c-2.436,0-4.432-0.688-5.992-2.065c-1.561-1.378-2.34-3.124-2.34-5.239c0-2.571,0.979-4.568,2.933-5.992
		c1.956-1.422,4.706-2.133,8.253-2.133h4.107v-1.94c0-1.477-0.441-2.651-1.324-3.527c-0.883-0.874-2.184-1.312-3.902-1.312
		c-1.508,0-2.77,0.382-3.789,1.142c-1.02,0.762-1.529,1.682-1.529,2.762h-4.246c0-1.232,0.438-2.422,1.312-3.572
		c0.875-1.148,2.062-2.057,3.562-2.728c1.498-0.669,3.146-1.005,4.94-1.005c2.846,0,5.075,0.712,6.688,2.135
		c1.613,1.423,2.451,3.383,2.512,5.878v11.367c0,2.268,0.289,4.07,0.867,5.409v0.365H377.488z M370.48,143.135
		c1.324,0,2.58-0.342,3.767-1.026s2.046-1.575,2.579-2.671v-5.066h-3.31c-5.175,0-7.761,1.514-7.761,4.542
		c0,1.323,0.441,2.358,1.324,3.104S369.096,143.135,370.48,143.135z"/>
	<path fill="#313131" d="M399.606,125.446c-0.64-0.105-1.332-0.16-2.077-0.16c-2.77,0-4.648,1.18-5.639,3.539v17.529h-4.223v-24.697
		h4.109l0.068,2.854c1.385-2.207,3.348-3.311,5.889-3.311c0.822,0,1.445,0.107,1.872,0.32V125.446z"/>
	<path fill="#313131" d="M412.958,143.364c1.507,0,2.822-0.457,3.949-1.369s1.75-2.055,1.872-3.424h3.994
		c-0.075,1.415-0.563,2.762-1.461,4.04s-2.097,2.298-3.595,3.059s-3.086,1.142-4.76,1.142c-3.363,0-6.037-1.123-8.022-3.367
		s-2.979-5.314-2.979-9.21v-0.708c0-2.403,0.44-4.541,1.323-6.414c0.883-1.871,2.148-3.324,3.801-4.359
		c1.65-1.035,3.603-1.553,5.854-1.553c2.77,0,5.071,0.83,6.905,2.489c1.834,1.657,2.811,3.812,2.933,6.46h-3.994
		c-0.122-1.599-0.728-2.911-1.815-3.938c-1.088-1.028-2.43-1.541-4.028-1.541c-2.146,0-3.808,0.771-4.987,2.316
		s-1.769,3.777-1.769,6.699v0.799c0,2.846,0.585,5.037,1.757,6.574S410.783,143.364,412.958,143.364z"/>
	<path fill="#313131" d="M431.745,124.647c1.872-2.297,4.308-3.447,7.304-3.447c5.219,0,7.853,2.945,7.898,8.834v16.32h-4.223
		v-16.343c-0.016-1.78-0.422-3.097-1.221-3.948c-0.801-0.853-2.043-1.279-3.732-1.279c-1.369,0-2.572,0.365-3.607,1.096
		s-1.841,1.689-2.419,2.877v17.598h-4.224v-35.061h4.224V124.647z"/>
	<path fill="#313131" d="M489.95,135.809c-0.411,3.515-1.708,6.228-3.892,8.137c-2.184,1.91-5.086,2.865-8.709,2.865
		c-3.924,0-7.071-1.407-9.438-4.223s-3.549-6.582-3.549-11.299v-3.195c0-3.09,0.551-5.805,1.654-8.148s2.667-4.144,4.691-5.398
		c2.023-1.256,4.367-1.884,7.03-1.884c3.53,0,6.36,0.985,8.49,2.956c2.131,1.971,3.37,4.699,3.721,8.184h-4.405
		c-0.381-2.656-1.207-4.579-2.477-5.77c-1.27-1.191-3.047-1.787-5.329-1.787c-2.802,0-4.995,1.037-6.585,3.107
		c-1.591,2.072-2.386,5.02-2.386,8.842v3.221c0,3.609,0.753,6.48,2.259,8.613c1.508,2.132,3.615,3.197,6.322,3.197
		c2.436,0,4.305-0.551,5.604-1.654c1.303-1.104,2.166-3.025,2.592-5.764H489.95z"/>
	<path fill="#313131" d="M494.15,133.778c0-2.42,0.475-4.596,1.426-6.528c0.952-1.933,2.275-3.425,3.973-4.474
		c1.696-1.051,3.633-1.576,5.809-1.576c3.363,0,6.084,1.165,8.16,3.493c2.077,2.329,3.115,5.425,3.115,9.29v0.297
		c0,2.404-0.46,4.561-1.381,6.471c-0.92,1.91-2.236,3.397-3.949,4.463c-1.711,1.064-3.678,1.598-5.9,1.598
		c-3.348,0-6.059-1.164-8.137-3.492c-2.076-2.329-3.115-5.41-3.115-9.245V133.778z M498.396,134.28c0,2.739,0.635,4.938,1.906,6.597
		c1.27,1.659,2.971,2.487,5.1,2.487c2.146,0,3.852-0.84,5.114-2.521s1.895-4.036,1.895-7.064c0-2.709-0.644-4.904-1.929-6.586
		c-1.286-1.682-2.994-2.521-5.125-2.521c-2.084,0-3.766,0.829-5.044,2.487C499.035,128.817,498.396,131.19,498.396,134.28z"/>
	<path fill="#313131" d="M525.9,121.657l0.115,2.74c1.81-2.131,4.252-3.197,7.326-3.197c3.454,0,5.805,1.324,7.053,3.973
		c0.822-1.188,1.891-2.146,3.207-2.876s2.873-1.097,4.668-1.097c5.416,0,8.172,2.869,8.264,8.605v16.549h-4.224v-16.297
		c0-1.766-0.403-3.085-1.21-3.961c-0.807-0.875-2.16-1.312-4.062-1.312c-1.566,0-2.869,0.469-3.902,1.404
		c-1.035,0.936-1.637,2.195-1.805,3.777v16.389h-4.246V130.17c0-3.59-1.756-5.387-5.271-5.387c-2.77,0-4.664,1.18-5.684,3.538
		v18.032h-4.223v-24.697H525.9z"/>
	<path fill="#313131" d="M583.763,134.28c0,3.759-0.861,6.787-2.58,9.084c-1.719,2.299-4.047,3.447-6.984,3.447
		c-2.998,0-5.355-0.951-7.076-2.854v11.893H562.9v-34.193h3.857l0.206,2.74c1.72-2.131,4.108-3.197,7.167-3.197
		c2.967,0,5.314,1.119,7.042,3.355c1.728,2.238,2.591,5.35,2.591,9.337V134.28z M579.54,133.8c0-2.785-0.593-4.983-1.78-6.597
		c-1.187-1.613-2.814-2.42-4.885-2.42c-2.557,0-4.473,1.135-5.752,3.402v11.8c1.264,2.252,3.195,3.378,5.799,3.378
		c2.023,0,3.633-0.803,4.826-2.408C578.943,139.351,579.54,136.965,579.54,133.8z"/>
	<path fill="#313131" d="M599.376,146.811c-3.348,0-6.072-1.1-8.172-3.298c-2.102-2.199-3.15-5.14-3.15-8.823v-0.775
		c0-2.45,0.468-4.638,1.404-6.562c0.936-1.926,2.244-3.432,3.926-4.52s3.504-1.633,5.467-1.633c3.211,0,5.706,1.059,7.486,3.174
		c1.781,2.115,2.672,5.144,2.672,9.084v1.758h-16.732c0.061,2.435,0.773,4.402,2.135,5.9c1.361,1.5,3.094,2.248,5.193,2.248
		c1.49,0,2.754-0.304,3.788-0.912c1.035-0.608,1.94-1.416,2.717-2.42l2.579,2.009C606.619,145.221,603.515,146.811,599.376,146.811z
		 M598.851,124.67c-1.705,0-3.135,0.62-4.291,1.859c-1.156,1.241-1.873,2.979-2.146,5.217h12.372v-0.32
		c-0.122-2.146-0.7-3.809-1.735-4.986C602.016,125.26,600.617,124.67,598.851,124.67z"/>
	<path fill="#313131" d="M619.623,115.676v5.98h4.61v3.265h-4.61v15.335c0,0.99,0.205,1.733,0.615,2.229
		c0.412,0.495,1.111,0.742,2.1,0.742c0.488,0,1.157-0.092,2.01-0.273v3.403c-1.111,0.304-2.191,0.454-3.241,0.454
		c-1.888,0-3.31-0.57-4.269-1.712s-1.438-2.763-1.438-4.862v-15.315h-4.498v-3.265h4.498v-5.98H619.623z"/>
	<path fill="#313131" d="M629.187,115.106c0-0.684,0.207-1.263,0.627-1.734c0.418-0.472,1.039-0.708,1.859-0.708
		c0.822,0,1.445,0.236,1.873,0.708c0.424,0.472,0.639,1.051,0.639,1.734c0,0.685-0.215,1.256-0.639,1.713
		c-0.428,0.456-1.051,0.684-1.873,0.684c-0.82,0-1.441-0.228-1.859-0.684C629.394,116.362,629.187,115.791,629.187,115.106z
		 M633.751,146.354h-4.223v-24.697h4.223V146.354z"/>
	<path fill="#313131" d="M646.238,115.676v5.98h4.609v3.265h-4.609v15.335c0,0.99,0.204,1.733,0.615,2.229s1.11,0.742,2.1,0.742
		c0.487,0,1.156-0.092,2.009-0.273v3.403c-1.11,0.304-2.19,0.454-3.241,0.454c-1.887,0-3.309-0.57-4.268-1.712
		s-1.438-2.763-1.438-4.862v-15.315h-4.497v-3.265h4.497v-5.98H646.238z"/>
	<path fill="#313131" d="M654.203,133.778c0-2.42,0.475-4.596,1.426-6.528c0.952-1.933,2.275-3.425,3.973-4.474
		c1.696-1.051,3.633-1.576,5.809-1.576c3.363,0,6.084,1.165,8.16,3.493c2.077,2.329,3.115,5.425,3.115,9.29v0.297
		c0,2.404-0.459,4.561-1.381,6.471c-0.92,1.91-2.236,3.397-3.948,4.463c-1.712,1.064-3.679,1.598-5.9,1.598
		c-3.348,0-6.06-1.164-8.138-3.492c-2.076-2.329-3.115-5.41-3.115-9.245V133.778z M658.449,134.28c0,2.739,0.635,4.938,1.904,6.597
		c1.271,1.659,2.973,2.487,5.103,2.487c2.146,0,3.851-0.84,5.114-2.521c1.262-1.682,1.895-4.036,1.895-7.064
		c0-2.709-0.645-4.904-1.93-6.586c-1.286-1.682-2.994-2.521-5.125-2.521c-2.084,0-3.766,0.829-5.043,2.487
		C659.087,128.817,658.449,131.19,658.449,134.28z"/>
	<path fill="#313131" d="M693.919,125.446c-0.639-0.105-1.332-0.16-2.076-0.16c-2.77,0-4.648,1.18-5.639,3.539v17.529h-4.223
		v-24.697h4.109l0.068,2.854c1.384-2.207,3.348-3.311,5.889-3.311c0.822,0,1.445,0.107,1.871,0.32V125.446z"/>
	<path fill="#313131" d="M712.18,139.803c0-1.141-0.431-2.027-1.29-2.658c-0.859-0.632-2.357-1.177-4.496-1.633
		c-2.139-0.457-3.835-1.004-5.09-1.645c-1.256-0.638-2.184-1.398-2.785-2.281s-0.901-1.934-0.901-3.15
		c0-2.023,0.856-3.736,2.567-5.136c1.712-1.399,3.898-2.101,6.562-2.101c2.799,0,5.07,0.724,6.813,2.169
		c1.743,1.446,2.614,3.296,2.614,5.548h-4.246c0-1.158-0.492-2.154-1.473-2.991c-0.981-0.837-2.217-1.255-3.709-1.255
		c-1.537,0-2.738,0.334-3.606,1.004s-1.302,1.545-1.302,2.625c0,1.02,0.404,1.788,1.211,2.306c0.806,0.518,2.263,1.013,4.369,1.483
		c2.109,0.473,3.816,1.035,5.127,1.689c1.307,0.654,2.277,1.441,2.909,2.362c0.63,0.921,0.948,2.043,0.948,3.366
		c0,2.207-0.885,3.976-2.648,5.307c-1.766,1.332-4.057,1.998-6.871,1.998c-1.978,0-3.729-0.35-5.248-1.05
		c-1.523-0.7-2.715-1.678-3.574-2.933c-0.859-1.256-1.289-2.615-1.289-4.075h4.223c0.076,1.415,0.643,2.538,1.701,3.367
		c1.057,0.829,2.453,1.243,4.188,1.243c1.598,0,2.881-0.322,3.846-0.97C711.697,141.748,712.18,140.884,712.18,139.803z"/>
	<path fill="#313131" d="M733.5,115.106c0-0.684,0.209-1.263,0.627-1.734c0.419-0.472,1.039-0.708,1.861-0.708
		c0.82,0,1.444,0.236,1.871,0.708c0.426,0.472,0.64,1.051,0.64,1.734c0,0.685-0.214,1.256-0.64,1.713
		c-0.427,0.456-1.051,0.684-1.871,0.684c-0.822,0-1.442-0.228-1.861-0.684C733.708,116.362,733.5,115.791,733.5,115.106z
		 M738.064,146.354h-4.223v-24.697h4.223V146.354z"/>
	<path fill="#313131" d="M748.815,121.657l0.138,3.104c1.887-2.374,4.352-3.562,7.395-3.562c5.219,0,7.852,2.945,7.898,8.834v16.32
		h-4.223v-16.343c-0.016-1.78-0.422-3.097-1.221-3.948c-0.8-0.853-2.043-1.279-3.732-1.279c-1.369,0-2.572,0.365-3.607,1.096
		s-1.84,1.689-2.419,2.877v17.598h-4.224v-24.697H748.815z"/>
	<path fill="#313131" d="M792.64,131.542c-3.758-1.081-6.493-2.409-8.207-3.984c-1.711-1.574-2.566-3.518-2.566-5.832
		c0-2.617,1.046-4.781,3.139-6.493c2.092-1.712,4.812-2.568,8.16-2.568c2.282,0,4.318,0.442,6.105,1.324
		c1.789,0.882,3.173,2.101,4.154,3.651c0.981,1.553,1.473,3.249,1.473,5.091h-4.406c0-2.017-0.639-3.601-1.917-4.753
		c-1.278-1.153-3.081-1.73-5.409-1.73c-2.16,0-3.846,0.477-5.057,1.43c-1.209,0.953-1.814,2.275-1.814,3.968
		c0,1.357,0.574,2.504,1.723,3.442c1.15,0.936,3.105,1.794,5.867,2.572c2.762,0.777,4.922,1.634,6.482,2.57
		c1.561,0.936,2.717,2.027,3.469,3.274c0.754,1.248,1.131,2.716,1.131,4.405c0,2.693-1.051,4.85-3.15,6.471
		s-4.908,2.432-8.422,2.432c-2.283,0-4.414-0.438-6.391-1.312c-1.979-0.875-3.506-2.074-4.578-3.596s-1.608-3.248-1.608-5.182h4.405
		c0,2.01,0.742,3.596,2.225,4.76c1.484,1.164,3.466,1.746,5.947,1.746c2.312,0,4.086-0.472,5.318-1.415
		c1.232-0.942,1.849-2.229,1.849-3.856c0-1.629-0.571-2.889-1.712-3.779C797.708,133.288,795.638,132.408,792.64,131.542z"/>
	<path fill="#313131" d="M820.169,146.811c-3.35,0-6.072-1.1-8.173-3.298c-2.101-2.199-3.149-5.14-3.149-8.823v-0.775
		c0-2.45,0.467-4.638,1.403-6.562c0.935-1.926,2.245-3.432,3.927-4.52c1.68-1.088,3.503-1.633,5.466-1.633
		c3.21,0,5.706,1.059,7.487,3.174c1.779,2.115,2.67,5.144,2.67,9.084v1.758h-16.73c0.061,2.435,0.773,4.402,2.133,5.9
		c1.363,1.5,3.094,2.248,5.194,2.248c1.491,0,2.753-0.304,3.788-0.912s1.941-1.416,2.717-2.42l2.58,2.009
		C827.412,145.221,824.307,146.811,820.169,146.811z M819.643,124.67c-1.704,0-3.134,0.62-4.291,1.859
		c-1.156,1.241-1.872,2.979-2.146,5.217h12.371v-0.32c-0.121-2.146-0.699-3.809-1.734-4.986
		C822.808,125.26,821.409,124.67,819.643,124.67z"/>
	<path fill="#313131" d="M849.933,146.354c-0.244-0.486-0.441-1.354-0.594-2.602c-1.963,2.039-4.307,3.059-7.029,3.059
		c-2.437,0-4.433-0.688-5.992-2.065c-1.561-1.378-2.341-3.124-2.341-5.239c0-2.571,0.978-4.568,2.934-5.992
		c1.956-1.422,4.706-2.133,8.252-2.133h4.108v-1.94c0-1.477-0.441-2.651-1.324-3.527c-0.883-0.874-2.184-1.312-3.902-1.312
		c-1.508,0-2.77,0.382-3.789,1.142c-1.02,0.762-1.53,1.682-1.53,2.762h-4.245c0-1.232,0.438-2.422,1.312-3.572
		c0.874-1.148,2.061-2.057,3.561-2.728c1.498-0.669,3.146-1.005,4.941-1.005c2.846,0,5.074,0.712,6.688,2.135
		s2.451,3.383,2.512,5.878v11.367c0,2.268,0.289,4.07,0.867,5.409v0.365H849.933z M842.925,143.135c1.324,0,2.58-0.342,3.766-1.026
		c1.188-0.685,2.047-1.575,2.58-2.671v-5.066h-3.31c-5.175,0-7.761,1.514-7.761,4.542c0,1.323,0.44,2.358,1.324,3.104
		C840.407,142.764,841.541,143.135,842.925,143.135z"/>
	<path fill="#313131" d="M872.052,125.446c-0.641-0.105-1.334-0.16-2.078-0.16c-2.77,0-4.648,1.18-5.639,3.539v17.529h-4.223
		v-24.697h4.109l0.068,2.854c1.384-2.207,3.348-3.311,5.889-3.311c0.82,0,1.445,0.107,1.873,0.32V125.446z"/>
	<path fill="#313131" d="M885.404,143.364c1.506,0,2.822-0.457,3.949-1.369c1.126-0.912,1.75-2.055,1.872-3.424h3.993
		c-0.075,1.415-0.562,2.762-1.461,4.04c-0.896,1.278-2.096,2.298-3.594,3.059c-1.499,0.761-3.086,1.142-4.76,1.142
		c-3.363,0-6.037-1.123-8.023-3.367c-1.984-2.244-2.979-5.314-2.979-9.21v-0.708c0-2.403,0.441-4.541,1.324-6.414
		c0.883-1.871,2.148-3.324,3.801-4.359c1.65-1.035,3.603-1.553,5.854-1.553c2.769,0,5.069,0.83,6.905,2.489
		c1.834,1.657,2.811,3.812,2.932,6.46h-3.993c-0.122-1.599-0.728-2.911-1.815-3.938c-1.088-1.028-2.43-1.541-4.028-1.541
		c-2.146,0-3.808,0.771-4.987,2.316s-1.77,3.777-1.77,6.699v0.799c0,2.846,0.586,5.037,1.758,6.574S883.228,143.364,885.404,143.364
		z"/>
	<path fill="#313131" d="M904.189,124.647c1.872-2.297,4.307-3.447,7.305-3.447c5.219,0,7.852,2.945,7.897,8.834v16.32h-4.224
		v-16.343c-0.014-1.78-0.422-3.097-1.22-3.948c-0.8-0.853-2.044-1.279-3.731-1.279c-1.37,0-2.572,0.365-3.607,1.096
		s-1.841,1.689-2.42,2.877v17.598h-4.223v-35.061h4.223V124.647z"/>
</g>
<g>
	<g>
		<linearGradient id="SVGID_1_" gradientUnits="userSpaceOnUse" x1="113.1621" y1="147.4097" x2="108.2918" y2="7.941">
			<stop  offset="0" style="stop-color:#4259E6"/>
			<stop  offset="0.4594" style="stop-color:#2666F1"/>
			<stop  offset="1" style="stop-color:#0177FF"/>
		</linearGradient>
		<path fill="url(#SVGID_1_)" d="M210.437,13.024c0-2.2-1.801-4-4-4H77.366c-2.2,0-2.728,1.273-1.171,2.828l30.779,30.781
			c1.557,1.555,1.557,4.102,0,5.656l-94.977,94.977c-1.555,1.557-1.027,2.829,1.172,2.829h120.392c2.2,0,5.272-1.272,6.828-2.829
			l2.261-2.262c1.556-1.555,3.861-4.303,5.123-6.104l22.594-32.248c1.262-1.801,3.427-1.876,4.811-0.165l32.744,40.497
			c1.384,1.711,2.516,1.311,2.516-0.89V13.024z"/>
	</g>
	<g>
		<linearGradient id="SVGID_2_" gradientUnits="userSpaceOnUse" x1="16.6934" y1="91.6577" x2="213.5912" y2="112.3525">
			<stop  offset="0" style="stop-color:#0177FF"/>
			<stop  offset="0.6141" style="stop-color:#0292FF"/>
			<stop  offset="1" style="stop-color:#03A6FF"/>
		</linearGradient>
		<path fill="url(#SVGID_2_)" d="M44.888,110.375c1.555-1.555,4.58-2.414,6.721-1.908l18.906,4.463
			c2.142,0.506,5.344-0.146,7.117-1.449l20.76-15.258c1.771-1.303,4.895-1.703,6.938-0.889l19.269,7.678
			c2.044,0.814,4.961,0.18,6.481-1.41l22.179-23.176c1.521-1.59,4.533-2.547,6.691-2.125l19.354,3.771
			c2.158,0.422,5.234-0.47,6.834-1.98l21.391-20.188c1.6-1.511,2.908-0.946,2.908,1.254v82.937c0,2.2-1.273,2.728-2.828,1.171
			l-30.783-30.781c-1.555-1.555-4.101-1.555-5.656,0l-30.78,30.781c-1.556,1.557-4.628,2.829-6.828,2.829H13.169
			c-2.199,0-2.727-1.272-1.172-2.829L44.888,110.375z"/>
	</g>
	<g>
		<polygon fill="#FEFDFF" points="75.13,116.76 47.414,109.75 48.527,105.346 74.193,111.838 101.544,92.126 128.47,102.756 
			155.447,73.996 182.74,78.418 209.129,53.508 212.248,56.811 184.228,83.262 157.108,78.868 129.673,108.115 102.185,97.264 		"/>
	</g>
	<path fill="#FFFFFF" d="M53.262,107.793c0,3.343-2.712,6.057-6.058,6.057c-3.349,0-6.059-2.714-6.059-6.057
		c0-3.348,2.71-6.06,6.059-6.06C50.55,101.734,53.262,104.446,53.262,107.793z"/>
	<path fill="#0177FF" d="M50.503,107.793c0,1.821-1.478,3.297-3.299,3.297c-1.824,0-3.301-1.476-3.301-3.297
		c0-1.825,1.477-3.301,3.301-3.301C49.026,104.493,50.503,105.968,50.503,107.793z"/>
	<g>
		<path fill="#FFFFFF" d="M80.468,114.038c0,3.346-2.717,6.058-6.06,6.058c-3.347,0-6.058-2.712-6.058-6.058
			c0-3.347,2.711-6.059,6.058-6.059C77.751,107.979,80.468,110.691,80.468,114.038z"/>
	</g>
	<circle fill="#0177FF" cx="74.408" cy="114.038" r="3.301"/>
	<circle fill="#FFFFFF" cx="101.73" cy="94.917" r="6.059"/>
	<circle fill="#0177FF" cx="101.728" cy="94.917" r="3.301"/>
	<circle fill="#FFFFFF" cx="128.928" cy="105.056" r="6.058"/>
	<circle fill="#0177FF" cx="128.927" cy="105.056" r="3.301"/>
	<path fill="#FFFFFF" d="M162.249,76.531c0,3.347-2.714,6.06-6.058,6.06c-3.346,0-6.059-2.713-6.059-6.06
		c0-3.344,2.713-6.057,6.059-6.057C159.535,70.474,162.249,73.187,162.249,76.531z"/>
	<circle fill="#0177FF" cx="156.189" cy="76.531" r="3.301"/>
	<circle fill="#FFFFFF" cx="182.916" cy="80.84" r="6.059"/>
	<circle fill="#0177FF" cx="182.917" cy="80.84" r="3.3"/>
	<circle fill="#FFFFFF" cx="210.147" cy="55.456" r="6.06"/>
	<circle fill="#0177FF" cx="210.147" cy="55.456" r="3.3"/>
</g>
</svg>
