<?xml version="1.0" encoding="utf-8"?>
<!-- Generator: Adobe Illustrator 18.1.1, SVG Export Plug-In . SVG Version: 6.00 Build 0)  -->
<svg version="1.1" id="Layer_1" xmlns="http://www.w3.org/2000/svg" xmlns:xlink="http://www.w3.org/1999/xlink" x="0px" y="0px"
	 viewBox="104.3 91.3 91.1 17.7" enable-background="new 104.3 91.3 91.1 17.7" xml:space="preserve">
<g>
	<g>
		<path fill="#02327E" d="M115.9,95.5h-5.1l-0.5,2.2h5.4c0.6,0,0.9,0.4,0.7,1.2l-0.7,3.1c-0.3,1.1-0.6,1.5-1.8,1.5h-2.8
			c-0.2,0-0.5,0.1-0.7,0.2l-1.6,1.7l0.1-0.8c0-0.3,0-0.6-0.2-0.8c-0.2-0.2-0.5-0.3-0.8-0.3h-3.2l-0.5,2.2h2.5l-0.3,2.1
			c-0.1,0.4,0.1,0.8,0.5,1c0.2,0.1,0.3,0.1,0.5,0.1c0.2,0,0.5-0.1,0.7-0.3l3.3-3h3.4c2.1,0,2.5-2,2.8-3.3c0,0,0,0,0,0l0.8-3.9
			C118.9,96.9,117.6,95.5,115.9,95.5"/>
		<path fill="#036CC2" d="M108,98.5l0.7-3.8c0.1-0.6,0.4-1.2,1.1-1.2h9.1l0.5-2.2h-9c-2.4,0-3.3,1.2-3.6,3l-0.8,4c0,0.1,0,0.2,0,0.2
			c0,1.7,1.4,3.1,3.1,3.1h4.3l0.5-2.2h-4.8C108.6,99.5,108,99,108,98.5"/>
	</g>
	<g>
		<path fill="#036CC2" d="M130.4,95.3c-1-0.8-1.9-1.1-2.6-1.1c-0.9,0-1.3,0.4-1.3,1c0,0.5,0.3,0.8,1,1.2l0.7,0.4
			c1.9,1,2.8,2.3,2.8,3.9c0,2.6-2,4.4-4.8,4.4c-1.8,0-3.3-0.8-4.2-2.3l2.2-2c0.7,1,1.5,1.5,2.3,1.5c0.9,0,1.4-0.4,1.4-1.2
			c0-0.5-0.4-0.9-1.2-1.3l-0.7-0.4c-1.7-1-2.5-2.1-2.5-3.6c0-2.6,2-4.3,4.8-4.3c1.3,0,2.5,0.4,3.5,1.3L130.4,95.3z"/>
		<path fill="#036CC2" d="M132.8,95.4h2.3l0.2,1.2c0.8-1,1.7-1.5,2.8-1.5c1.8,0,2.8,1,2.8,3c0,0.4,0,0.8-0.1,1.1l-1,5.8h-3l1-5.6
			c0-0.3,0.1-0.5,0.1-0.7c0-0.8-0.4-1.1-1.1-1.1c-0.9,0-1.5,0.6-1.7,1.9l-1,5.5H131L132.8,95.4z"/>
		<path fill="#036CC2" d="M146,100.5c-1.1,0-1.7,0.5-1.7,1.2c0,0.6,0.4,1,1,1c1,0,1.5-0.7,1.6-2.1
			C146.6,100.5,146.3,100.5,146,100.5 M149.6,102.5c0,0.1,0,0.2,0,0.2c0,0.1,0,0.2,0.1,0.3c0,0.1,0.1,0.1,0.3,0.1h0.1l-0.3,1.6
			c-0.4,0.1-0.8,0.1-1.1,0.1c-1.1,0-1.7-0.4-2-1.4h0c-0.6,1-1.4,1.5-2.5,1.5c-1.7,0-2.9-1.3-2.9-3c0-1.9,1.6-3.1,4.3-3.1
			c0.5,0,1,0,1.7,0.2l0.1-0.7v-0.1c0-0.5-0.5-0.8-1.4-0.8c-0.9,0-1.8,0.2-2.6,0.7l-1.1-1.8c1-0.8,2.5-1.2,4.2-1.2c2.6,0,3.9,1,3.9,3
			c0,0.4,0,0.8-0.1,1.2L149.6,102.5z"/>
		<path fill="#036CC2" d="M158.1,99.6c0-1.1-0.6-1.8-1.5-1.8c-1.2,0-2.3,1.3-2.3,3c0,1.1,0.6,1.8,1.5,1.8
			C157,102.6,158.1,101.3,158.1,99.6 M157.5,95.3c2.1,0,3.6,1.8,3.6,4.2c0,1.9-0.8,3.6-2.3,4.7c-0.8,0.6-1.7,0.9-2.5,0.9
			c-1.1,0-1.9-0.5-2.6-1.4h0l-0.9,5.2h-3l2.4-13.5h2.4l0.2,1.2h0C155.5,95.8,156.4,95.3,157.5,95.3"/>
		<path fill="#02327E" d="M169.3,99.7l-0.2-1.2c0-0.3-0.2-1.3-0.4-3c-0.7,1.6-1.1,2.6-1.4,3.1l-0.6,1.1H169.3z M170.2,105l-0.5-3.2
			h-4.2l-1.7,3.2h-3.3l7.5-13.7h2.6l2.7,13.7H170.2z"/>
		<path fill="#02327E" d="M181.7,99.6c0-1.1-0.6-1.8-1.5-1.8c-1.2,0-2.3,1.3-2.3,3c0,1.1,0.6,1.8,1.5,1.8
			C180.6,102.6,181.7,101.3,181.7,99.6 M181.1,95.3c2.1,0,3.6,1.8,3.6,4.2c0,1.9-0.8,3.6-2.3,4.7c-0.8,0.6-1.7,0.9-2.5,0.9
			c-1.1,0-1.9-0.5-2.6-1.4h0l-0.9,5.2h-3l2.4-13.5h2.4l0.2,1.2h0C179.1,95.8,180,95.3,181.1,95.3"/>
		<path fill="#02327E" d="M192.3,99.6c0-1.1-0.6-1.8-1.5-1.8c-1.2,0-2.3,1.3-2.3,3c0,1.1,0.6,1.8,1.5,1.8
			C191.2,102.6,192.3,101.3,192.3,99.6 M191.8,95.3c2.1,0,3.6,1.8,3.6,4.2c0,1.9-0.8,3.6-2.3,4.7c-0.8,0.6-1.7,0.9-2.5,0.9
			c-1.1,0-1.9-0.5-2.6-1.4h0L187,109h-3l2.4-13.5h2.4l0.2,1.2h0C189.7,95.8,190.6,95.3,191.8,95.3"/>
	</g>
</g>
</svg>
