<?xml version="1.0" encoding="utf-8"?>
<!-- Generator: Adobe Illustrator 18.0.0, SVG Export Plug-In . SVG Version: 6.00 Build 0)  -->
<!DOCTYPE svg PUBLIC "-//W3C//DTD SVG 1.1 Basic//EN" "http://www.w3.org/Graphics/SVG/1.1/DTD/svg11-basic.dtd">
<svg version="1.1" baseProfile="basic" id="Layer_1"
	 xmlns="http://www.w3.org/2000/svg" xmlns:xlink="http://www.w3.org/1999/xlink" x="0px" y="0px" width="442px" height="442px"
	 viewBox="-1.1 -1 442 442" xml:space="preserve">
<g>
	<circle fill="#FFFDE0" cx="219.9" cy="219.9" r="220.4"/>
	<g>
		<path fill="#5B5E58" d="M382.5,169.4l-38.2-42.1l38.2-76.4l38.2,76.4L382.5,169.4z M355.9,125.7l26.5,29.3l26.5-29.3l-26.5-53.1
			L355.9,125.7z"/>
		<rect x="377.3" y="157.5" fill="#5B5E58" width="9.7" height="45"/>
	</g>
	<g>
		<path fill="#99C8BC" d="M242.6,327.2h30h9.3h7.7c0-0.4,0-0.8,0-1.2v-40.4l7.8,5.7c12.6,9.3,26.1,14,40.1,14c0,0,0,0,0,0
			c1.1,0,2.2,0,3.3-0.1c1.7-0.1,3.5-0.3,5.2-0.5l7.5-1l32.4-47.9c-0.9,0.1-1.8,0.2-2.7,0.2c-11.9,0.2-22.2-7.3-26.1-17.9l-22.5,33.3
			l-3.2-0.7c-23.5-5.1-43.1-45.2-44.3-47.7c-4-7.7-11.9-12.5-20.6-12.5h-5.6l-35.4,55l-35.4-55h-7.4c-12.8,0-23.2,10.4-23.2,23.2
			v57.1h3.2h79.9V327.2z"/>
		<path fill="#99C8BC" d="M246.7,214.7c-0.2,0.1-0.4,0.1-0.6,0.2l-20.5,31.8l-20.9-32.5c-0.2-0.1-0.4-0.1-0.6-0.2l21.6,33.5
			L246.7,214.7z"/>
		<path fill="#7EAC9B" d="M260.9,210.5h5.6c8.7,0,16.6,4.8,20.6,12.5c1.2,2.6,20.8,42.7,44.3,47.7l3.2,0.7l22.5-33.3
			c-1.1-2.8-1.7-5.9-1.7-9.1c0-2.4,0.2-4.6,0.7-6.8l-25.7,38.1c-14.9-6-29.8-31.6-34.6-41.5l-0.1-0.1c-5.3-10.2-15.3-16.8-26.5-17.7
			c-1.5,1.4-3.1,2.8-4.8,4.1L260.9,210.5z"/>
		<path fill="#7EAC9B" d="M159.6,290.7v-57.1c0-12.8,10.4-23.2,23.2-23.2h7.4l-5.2-8c-0.6-0.6-1.2-1.1-1.8-1.7h-0.4
			c-18.1,0-32.9,14.8-32.9,32.9v57.1h3.6H159.6z"/>
		<path fill="#7EAC9B" d="M386,255.8l-32.4,47.9l-7.5,1c-1.7,0.2-3.5,0.4-5.2,0.5c-1.1,0.1-2.2,0.1-3.3,0.1c0,0,0,0,0,0
			c-14,0-27.5-4.7-40.1-14l-7.8-5.7v40.4c0,0.4,0,0.8,0,1.2h9.7c0-0.4,0-0.8,0-1.2v-21.7c12.1,7.2,24.9,10.8,38.1,10.8c0,0,0,0,0,0
			c1.3,0,2.6,0,3.8-0.1c2-0.1,4-0.3,6-0.6l11.8-1.6l42.6-63.1l-0.9-0.6C396.9,252.7,391.7,255.1,386,255.8z"/>
		<path fill="#ABD9BD" d="M246,214.9c-6.2,2.1-12.9,3.2-19.8,3.2c-7.6,0-14.9-1.4-21.6-3.9l20.9,32.5L246,214.9z"/>
		<path fill="#7EAC9B" d="M260.9,210.5l3.5-5.5c-5.3,4.1-11.3,7.5-17.8,9.7l-21.1,32.8L204,214c-7.1-2.7-13.5-6.7-19-11.6l5.2,8
			l35.4,55L260.9,210.5z"/>
		<path fill="#99C8BC" d="M168.2,187c-6.3-8.3-7.1-14.7-7.5-26.4c-0.6-0.7-1.2-1.4-1.8-2.1c-1.8-2.3-3.4-4.7-4.9-7.3L133,201.7
			L168.2,187z"/>
		<path fill="#7EAC9B" d="M163.9,157.7c-1-1.1-2-2.2-2.9-3.4c-4.2-5.4-7.3-11.3-9.3-17.5c-0.3-1-0.6-2-0.9-3l-35.9,86.1l62-26
			C169.1,183.8,164.3,171.3,163.9,157.7z M158.9,158.5c0.6,0.8,1.2,1.5,1.8,2.1c0.4,11.6,1.2,18.1,7.5,26.4L133,201.7l21.1-50.6
			C155.5,153.7,157.1,156.2,158.9,158.5z"/>
		<path fill="#99C8BC" d="M277.4,123.8c-4.7-18.4-19.1-36-36.3-43.9c-10.8-5-19.9-7.4-27.8-7.4c-9.2,0-22.3,2.8-35.4,24.5
			c4.4-0.5,10.6-2.1,16-6.5c2.1-1.7,5.2-1.4,6.8,0.7c1.7,2.1,1.4,5.2-0.7,6.8c-9.7,7.8-20.8,8.9-26.1,8.9c-0.5,0-1,0-1.4,0
			c-0.5,1.1-1,2.2-1.6,3.4c-0.8,1.8-1.4,3.6-2,5.3l-1.3,4l-0.5-0.1l-0.2,0.4c2.7,1.3,5.3,2.9,7.7,4.6c6-3.1,16-7.6,29-10.4
			C221.7,110.2,248.7,109,277.4,123.8z"/>
		<path fill="#7EAC9B" d="M162.5,121.1c3.1,1.5,6.1,3.2,8.9,5.3c0.9-0.5,2-1.1,3.4-1.8c-2.4-1.7-5-3.3-7.7-4.6l0.2-0.4l0.5,0.1
			l1.3-4c0.5-1.7,1.2-3.5,2-5.3c0.5-1.2,1-2.3,1.6-3.4c-0.9,0-1.5-0.1-1.6-0.1c-2.7-0.3-4.6-2.7-4.3-5.4c0.3-2.7,2.7-4.6,5.4-4.3
			c0.1,0,2.4,0.2,5.8-0.2c13.1-21.7,26.2-24.5,35.4-24.5c7.9,0,17,2.4,27.8,7.4c17.2,7.9,31.5,25.5,36.3,43.9
			c2.1,1.1,4.2,2.2,6.3,3.5c0,0,0.1,0.1,0.1,0.1c0.7-0.4,1.5-0.8,2.2-1.1c0.6-0.3,1.1-0.5,1.7-0.8c-4.3-22.9-21.3-44.7-42.6-54.5
			c-12.1-5.6-22.5-8.3-31.9-8.3c-21.5,0-37.8,13.9-51.2,43.6c-0.5,1-0.9,2.1-1.2,3.1l-3.9,9.4c0.6,0.2,1.2,0.4,1.8,0.7
			C160.1,120,161.3,120.5,162.5,121.1z"/>
		<path fill="#7EAC9B" d="M200.1,98.1c2.1-1.7,2.4-4.8,0.7-6.8c-1.7-2.1-4.8-2.4-6.8-0.7c-5.5,4.4-11.6,6-16,6.5
			c-3.4,0.4-5.7,0.2-5.8,0.2c-2.7-0.3-5.1,1.6-5.4,4.3c-0.3,2.7,1.6,5.1,4.3,5.4c0.1,0,0.7,0.1,1.6,0.1c0.4,0,0.9,0,1.4,0
			C179.3,107,190.4,106,200.1,98.1z"/>
		<path fill="#EA8E68" d="M41.9,327.2h30.4v-26.8H14.7c3.6,9.2,7.9,18.2,12.7,26.8h6.1H41.9z"/>
		<path fill="#C9664B" d="M72.4,327.2h1.2v-36.5H11.1c1.1,3.3,2.3,6.5,3.6,9.7h57.7V327.2z"/>
		<polygon fill="#F37B54" points="232.9,327.2 232.9,300.4 163.2,300.4 163.2,327.2 192.8,327.2 202.5,327.2 		"/>
		<polygon fill="#C9664B" points="163.2,300.4 232.9,300.4 232.9,327.2 242.6,327.2 242.6,290.7 162.8,290.7 162.8,327.2 
			163.2,327.2 		"/>
		<polygon fill="#F37B54" points="153,327.2 153,300.4 83.3,300.4 83.3,327.2 113.3,327.2 122.6,327.2 		"/>
		<polygon fill="#C9664B" points="73.6,327.2 83.3,327.2 83.3,300.4 153,300.4 153,327.2 162.8,327.2 162.8,290.7 159.6,290.7 
			153.4,290.7 149.8,290.7 82.1,290.7 73.6,290.7 		"/>
		<path fill="#C9664B" d="M33.4,327.2h-6.1c1.9,3.5,4,6.9,6.1,10.2V327.2z"/>
		<polygon fill="#EA8E68" points="192.8,363.7 192.8,336.9 162.8,336.9 153.4,336.9 123,336.9 123,363.7 152.6,363.7 162.4,363.7 		
			"/>
		<polygon fill="#C9664B" points="153.4,336.9 162.8,336.9 192.8,336.9 192.8,327.2 163.2,327.2 162.8,327.2 153,327.2 122.6,327.2 
			122.6,363.7 123,363.7 123,336.9 		"/>
		<path fill="#F37B54" d="M82.5,363.7h30.4v-26.8H82.1h-8.5H43.2v14.7c3.1,4.1,6.3,8.2,9.7,12.1h20.3H82.5z"/>
		<path fill="#C9664B" d="M73.6,336.9h8.5h30.8v26.8h9.7v-36.5h-9.3h-30h-9.7h-1.2H41.9h-8.5v10.2c3.1,4.9,6.3,9.6,9.7,14.2v-14.7
			H73.6z"/>
		<polygon fill="#F37B54" points="282.4,336.9 282.4,363.7 313.2,363.7 321.7,363.7 352.1,363.7 352.1,336.9 		"/>
		<polygon fill="#C9664B" points="289.7,327.2 282,327.2 282,363.7 282.4,363.7 282.4,336.9 352.1,336.9 352.1,363.7 353.3,363.7 
			353.3,327.2 299.4,327.2 		"/>
		<polygon fill="#F37B54" points="272.2,336.9 242.6,336.9 202.5,336.9 202.5,363.7 232.5,363.7 241.8,363.7 272.2,363.7 		"/>
		<polygon fill="#C9664B" points="242.6,327.2 232.9,327.2 202.5,327.2 192.8,327.2 192.8,336.9 192.8,363.7 192.8,363.7 
			202.5,363.7 202.5,336.9 242.6,336.9 272.2,336.9 272.2,363.7 282,363.7 282,327.2 272.7,327.2 		"/>
		<path fill="#F37B54" d="M363.1,363.7h23.9c7.2-8.4,13.8-17.3,19.7-26.8h-43.6V363.7z"/>
		<path fill="#C9664B" d="M353.3,327.2v36.5h9.7v-26.8h43.6c2-3.2,3.9-6.4,5.8-9.7h-50.6H353.3z"/>
		<path fill="#F37B54" d="M152.6,373.4h-30h-9.3H82.9v19.1c3.3,2.6,6.7,5.2,10.2,7.6h59.5V373.4z"/>
		<path fill="#C9664B" d="M122.2,400.6h30.4v-0.4H93.1c0.2,0.1,0.4,0.3,0.6,0.4h18.8H122.2z"/>
		<path fill="#C9664B" d="M113.3,373.4h9.3h30v-9.7H123h-0.4h-9.7H82.5v28.5c0.1,0.1,0.3,0.2,0.4,0.3v-19.1H113.3z"/>
		<path fill="#F37B54" d="M61.8,373.4c3.5,3.6,7.2,7.2,11,10.6v-10.6H61.8z"/>
		<path fill="#C9664B" d="M82.5,363.7h-9.3H52.9c2.9,3.3,5.8,6.6,8.9,9.7h11V384c3.2,2.8,6.4,5.6,9.7,8.2V363.7z"/>
		<polygon fill="#F37B54" points="272.7,373.4 242.2,373.4 242.2,400.2 312,400.2 312,373.4 282,373.4 		"/>
		<path fill="#C9664B" d="M282,363.7h-9.7h-30.4v36.9h31.2h8.5h31.6v-36.9h-30.8H282z M312,400.2h-69.7v-26.8h30.4h9.3h30V400.2z"/>
		<polygon fill="#F37B54" points="192.8,373.4 162.4,373.4 162.4,400.2 232.1,400.2 232.1,373.4 202.5,373.4 		"/>
		<path fill="#C9664B" d="M241.8,363.7h-9.3h-30h-9.7h0h-30.4h-9.7v9.7v26.8v0.4h39.7h9.3h40.1V363.7z M232.1,400.2h-69.7v-26.8
			h30.4h9.7h29.6V400.2z"/>
		<path fill="#F37B54" d="M353.3,373.4h-30.4v26.8h23.8c11.3-7.9,21.7-16.9,31.3-26.8h-16.2H353.3z"/>
		<path fill="#C9664B" d="M353.3,363.7h-1.2h-30.4h-8.5v36.9h32.9c0.2-0.1,0.4-0.3,0.6-0.4h-23.8v-26.8h30.4h8.5H378
			c3.1-3.2,6-6.4,8.9-9.7h-23.9H353.3z"/>
		<path fill="#F37B54" d="M108.9,410.3c1.2,0.7,2.4,1.4,3.6,2.1v-2.1H108.9z"/>
		<path fill="#C9664B" d="M112.5,400.6H93.7c4.9,3.4,10,6.7,15.2,9.7h3.6V400.6z"/>
		<path fill="#F37B54" d="M202.1,410.3v26.8h55.5c4.8-0.8,9.5-1.8,14.2-2.9v-23.8H202.1z"/>
		<path fill="#C9664B" d="M273.1,400.6h-31.2h-40.1v39c6,0.5,12.1,0.8,18.2,0.8c12.9,0,25.5-1.1,37.7-3.2h-55.5v-26.8h69.7v23.8
			c0.4-0.1,0.8-0.2,1.2-0.3V400.6z"/>
		<path fill="#F37B54" d="M192,410.3h-69.7v7.2c18.6,9.2,38.8,15.9,60,19.6h9.8V410.3z"/>
		<path fill="#C9664B" d="M201.7,400.6h-9.3h-39.7h-30.4h-9.7v9.7v2.1c3.2,1.8,6.4,3.5,9.7,5.1v-7.2H192v26.8h-9.8
			c6.4,1.1,12.9,1.9,19.5,2.5V400.6z"/>
		<path fill="#F37B54" d="M282.8,431.2c17-5.1,33.1-12.1,48.2-20.9h-48.2V431.2z"/>
		<path fill="#C9664B" d="M313.2,400.6h-31.6h-8.5v33.3c3.3-0.8,6.5-1.7,9.7-2.7v-20.9h48.2c5.2-3,10.3-6.3,15.2-9.7H313.2z"/>
		<path fill="#E7CDAE" d="M294.3,123.1c2-0.6,4.1-1.1,6.2-1.5C298.5,122,296.4,122.5,294.3,123.1z"/>
		<path fill="#E7CDAE" d="M287.5,167.2c-0.1,0.6-0.2,1.2-0.4,1.8C287.3,168.4,287.4,167.8,287.5,167.2z"/>
		<path fill="#E7CDAE" d="M286.9,170.1c-0.2,0.7-0.3,1.3-0.5,1.9C286.6,171.4,286.8,170.7,286.9,170.1z"/>
		<path fill="#E7CDAE" d="M288.3,161.2c0,0.4-0.1,0.8-0.1,1.2C288.3,161.9,288.3,161.6,288.3,161.2z"/>
		<path fill="#E7CDAE" d="M300.4,140.3c2.6-6.2,4.1-12.7,4.4-19.3c-1.4,0.1-2.8,0.4-4.2,0.6c1.4-0.3,2.8-0.5,4.2-0.6
			C304.4,127.6,303,134.1,300.4,140.3z"/>
		<path fill="#E7CDAE" d="M288.8,157.8c0.1-0.1,0.2-0.2,0.3-0.3c4.3-4.5,7.7-9.6,10.2-14.9c-2.5,5.3-5.9,10.4-10.2,14.9
			C289,157.6,288.9,157.7,288.8,157.8z"/>
		<path fill="#E7CDAE" d="M277.5,191.2c-2.2,3.2-4.7,6.1-7.4,8.8C272.8,197.3,275.3,194.4,277.5,191.2z"/>
		<path fill="#E7CDAE" d="M286.2,173c-0.2,0.7-0.4,1.4-0.7,2.1C285.7,174.4,286,173.7,286.2,173z"/>
		<path fill="#E7CDAE" d="M285.3,175.8c-0.3,0.7-0.5,1.5-0.8,2.2C284.7,177.2,285,176.5,285.3,175.8z"/>
		<path fill="#E7CDAE" d="M283.1,181.2c-0.4,0.8-0.7,1.6-1.1,2.4C282.4,182.8,282.8,182,283.1,181.2z"/>
		<path fill="#E7CDAE" d="M288,164.2c-0.1,0.5-0.2,1-0.2,1.6C287.8,165.2,287.9,164.7,288,164.2z"/>
		<path fill="#E7CDAE" d="M284.3,178.5c-0.3,0.8-0.6,1.5-1,2.3C283.6,180.1,284,179.3,284.3,178.5z"/>
		<path fill="#E7CDAE" d="M281.9,183.8c-0.4,0.8-0.8,1.6-1.3,2.4C281.1,185.4,281.5,184.6,281.9,183.8z"/>
		<path fill="#E7CDAE" d="M279.1,188.8c-0.5,0.8-1,1.6-1.6,2.4C278,190.4,278.6,189.6,279.1,188.8z"/>
		<path fill="#E7CDAE" d="M280.5,186.3c-0.5,0.8-0.9,1.6-1.4,2.4C279.6,188,280.1,187.2,280.5,186.3z"/>
		<path fill="#E7CDAE" d="M204,214c0.2,0.1,0.4,0.1,0.6,0.2c6.7,2.5,14,3.9,21.6,3.9c6.9,0,13.6-1.1,19.8-3.2
			c0.2-0.1,0.4-0.1,0.6-0.2c6.5-2.3,12.5-5.6,17.8-9.7c1.7-1.3,3.2-2.7,4.8-4.1c0.3-0.3,0.6-0.6,0.9-0.8
			c-10.2,7.2-22.6,11.5-36,11.5c-17.9,0-34-7.6-45.4-19.6c-10.1-10.7-16.5-25-17-40.8c-1-1.1-2-2.2-2.9-3.4
			c-4.2-5.4-7.3-11.3-9.3-17.5c-1.2-3.7-2-7.6-2.5-11.4c0.6,0.2,1.3,0.4,1.9,0.6c1.2,0.5,2.5,1,3.7,1.6c-1.2-0.6-2.4-1.1-3.7-1.6
			c-0.6-0.2-1.2-0.5-1.8-0.7c-2.7-1-5.4-1.8-8.2-2.3c-0.2,5.8,0.4,11.7,2,17.4c0.3,1,0.6,2,0.9,3c2,6.2,5.1,12.1,9.3,17.5
			c0.9,1.2,1.9,2.3,2.9,3.4c0.4,13.6,5.2,26.1,13,36.2c1.2,1.6,2.6,3.2,4,4.6c0.7,0.8,1.5,1.5,2.2,2.2c0.6,0.6,1.2,1.1,1.8,1.7
			C190.5,207.3,196.9,211.3,204,214z"/>
		<path fill="#E7CDAE" d="M286.1,126.2c-0.7,0.4-1.5,0.7-2.2,1.1l0,0C284.6,127,285.3,126.6,286.1,126.2z"/>
		<path fill="#F0DABD" d="M283.9,127.4c1.9,1.2,2.6,3.8,1.4,5.8c-1.2,2-3.8,2.7-5.8,1.5c-8.4-5-17.1-8.7-26-11.1
			c-4.1,4-20,18.6-41.6,24.4c1.9,1.7,3.1,4.2,3.1,7c0,5.2-4.3,9.5-9.5,9.5c-5.2,0-9.5-4.3-9.5-9.5c0-1.7,0.4-3.3,1.2-4.6
			c-1,0-2,0.1-3.1,0.1c-3.8,0-7.6-0.3-11.4-1l-1.1-0.2l0.1-1.1c0.1-0.6,1.1-11.3,5.6-19.8c-8.6,3.5-13.8,6.9-13.8,6.9
			c-0.7,0.5-1.5,0.7-2.4,0.7c-1.4,0-2.7-0.7-3.5-1.9c-1.3-2-0.8-4.6,1.2-5.9c0.1-0.1,1-0.7,2.6-1.6c-2.8-2-5.8-3.8-8.9-5.3
			c-1.2-0.6-2.4-1.1-3.7-1.6c-0.6-0.2-1.2-0.4-1.9-0.6c0.4,3.9,1.2,7.7,2.5,11.4c2,6.2,5.1,12.1,9.3,17.5c0.9,1.2,1.9,2.3,2.9,3.4
			c0.5,15.8,6.9,30.1,17,40.8c11.4,12.1,27.5,19.6,45.4,19.6c13.4,0,25.9-4.3,36-11.5h0c0,0,0,0,0,0c2.7-2.7,5.2-5.6,7.4-8.8
			c0,0,0,0,0,0c0.5-0.8,1.1-1.6,1.6-2.4c0,0,0,0,0-0.1c0.5-0.8,1-1.6,1.4-2.4c0,0,0.1-0.1,0.1-0.1c0.4-0.8,0.9-1.6,1.3-2.4
			c0-0.1,0.1-0.2,0.1-0.2c0.4-0.8,0.8-1.6,1.1-2.4c0.1-0.1,0.1-0.3,0.2-0.4c0.3-0.8,0.7-1.5,1-2.3c0.1-0.2,0.1-0.4,0.2-0.5
			c0.3-0.7,0.6-1.5,0.8-2.2c0.1-0.2,0.1-0.5,0.2-0.7c0.2-0.7,0.5-1.4,0.7-2.1c0.1-0.3,0.2-0.6,0.2-0.9c0.2-0.6,0.4-1.3,0.5-1.9
			c0.1-0.4,0.2-0.8,0.2-1.2c0.1-0.6,0.3-1.2,0.4-1.8c0.1-0.5,0.2-1,0.2-1.4c0.1-0.5,0.2-1,0.2-1.6c0.1-0.6,0.1-1.2,0.2-1.8
			c0-0.4,0.1-0.8,0.1-1.2c0.1-1,0.2-2,0.2-3.1c0.1-0.1,0.2-0.2,0.3-0.3c0.1-0.1,0.2-0.2,0.3-0.3c4.3-4.5,7.7-9.6,10.2-14.9
			c0.4-0.8,0.7-1.5,1-2.3c2.6-6.2,4.1-12.7,4.4-19.3c-1.4,0.1-2.8,0.4-4.2,0.6c-2.1,0.4-4.2,0.9-6.2,1.5c-1.4,0.4-2.7,0.9-4.1,1.4
			c-0.7,0.3-1.3,0.5-2,0.8c-0.2,0.1-0.3,0.1-0.5,0.2c-0.6,0.2-1.1,0.5-1.7,0.8C285.3,126.6,284.6,127,283.9,127.4z M251.3,145.3
			c5.3,0,9.5,4.3,9.5,9.5c0,5.2-4.3,9.5-9.5,9.5c-5.2,0-9.5-4.3-9.5-9.5C241.8,149.6,246.1,145.3,251.3,145.3z"/>
		<path fill="#5B5E58" d="M197.1,150.2c-0.8,1.4-1.2,2.9-1.2,4.6c0,5.2,4.3,9.5,9.5,9.5c5.3,0,9.5-4.3,9.5-9.5c0-2.8-1.2-5.3-3.1-7
			C207.2,149.1,202.2,150,197.1,150.2z"/>
		<path fill="#5B5E58" d="M251.3,164.4c5.3,0,9.5-4.3,9.5-9.5c0-5.3-4.3-9.5-9.5-9.5c-5.2,0-9.5,4.3-9.5,9.5
			C241.8,160.1,246.1,164.4,251.3,164.4z"/>
		<path fill="#F8E8B1" d="M184.2,147.1c3.2,0.5,6.5,0.8,9.8,0.8c27.6,0,50-18.9,56.6-25.1c-14.5-3.5-29.4-3.6-44.8-0.3
			c-5.5,1.2-10.5,2.7-14.9,4.3C186.4,133.6,184.7,143.7,184.2,147.1z M213.6,134.1c-8.6,5.6-18.8,8.1-19.2,8.2c-0.1,0-0.2,0-0.3,0
			c-0.5,0-1-0.4-1.2-0.9c-0.2-0.7,0.2-1.3,0.9-1.5c0.1,0,10.2-2.5,18.4-7.9c0.6-0.4,1.3-0.2,1.7,0.4
			C214.4,133,214.2,133.7,213.6,134.1z M218.1,127.4c0.7-0.7,1.3-1.4,1.8-2.1c0.4-0.5,1.2-0.6,1.7-0.2c0.5,0.4,0.6,1.2,0.2,1.7
			c-0.6,0.8-1.3,1.5-2,2.3c-0.2,0.2-0.6,0.4-0.9,0.4c-0.3,0-0.6-0.1-0.9-0.3C217.6,128.7,217.6,127.9,218.1,127.4z"/>
		<path fill="#E4D19C" d="M250.7,122.7c-6.7,6.3-29,25.1-56.6,25.1c-3.3,0-6.6-0.3-9.8-0.8c0.4-3.3,2.1-13.5,6.8-20.4
			c-1.3,0.5-2.5,0.9-3.7,1.4c-4.5,8.5-5.6,19.2-5.6,19.8l-0.1,1.1l1.1,0.2c3.7,0.7,7.5,1,11.4,1c1,0,2.1,0,3.1-0.1
			c5.1-0.2,10.1-1.1,14.7-2.4c21.6-5.8,37.5-20.4,41.6-24.4C252.5,123.2,251.6,123,250.7,122.7z"/>
		<path fill="#7EAB9B" d="M168.8,128c-2,1.3-2.5,3.9-1.2,5.9c0.8,1.2,2.2,1.9,3.5,1.9c0.8,0,1.6-0.2,2.4-0.7
			c0.1-0.1,5.2-3.4,13.8-6.9c1.2-0.5,2.4-0.9,3.7-1.4c4.3-1.6,9.3-3.1,14.9-4.3c15.4-3.3,30.4-3.2,44.8,0.3c0.9,0.2,1.9,0.4,2.8,0.7
			c8.9,2.4,17.5,6.1,26,11.1c2,1.2,4.6,0.5,5.8-1.5c1.2-2,0.6-4.5-1.4-5.8l0,0c0,0-0.1-0.1-0.1-0.1c-2.1-1.3-4.2-2.4-6.3-3.5
			c-28.8-14.8-55.7-13.6-73.7-9.6c-12.9,2.8-23,7.3-29,10.4c-1.3,0.7-2.5,1.3-3.4,1.8C169.8,127.3,168.9,127.9,168.8,128z"/>
		<path fill="#E4D19C" d="M219,129.5c0.3,0,0.6-0.1,0.9-0.4c0.7-0.7,1.4-1.5,2-2.3c0.4-0.5,0.3-1.3-0.2-1.7
			c-0.5-0.4-1.3-0.3-1.7,0.2c-0.5,0.7-1.1,1.4-1.8,2.1c-0.5,0.5-0.5,1.3,0,1.7C218.3,129.4,218.6,129.5,219,129.5z"/>
		<path fill="#E4D19C" d="M212.3,132c-8.3,5.3-18.3,7.8-18.4,7.9c-0.7,0.2-1.1,0.8-0.9,1.5c0.1,0.6,0.6,0.9,1.2,0.9
			c0.1,0,0.2,0,0.3,0c0.4-0.1,10.6-2.6,19.2-8.2c0.6-0.4,0.7-1.1,0.4-1.7C213.6,131.8,212.9,131.7,212.3,132z"/>
		<path fill="#E7CDAE" d="M357.1,238.1c3.9,10.6,14.2,18,26.1,17.9c0.9,0,1.8-0.1,2.7-0.2c5.8-0.7,11-3.1,15-6.7
			c3.5-3.1,6.1-7,7.7-11.4c-4.8,4.5-11.3,7.4-18.4,7.5c-15.1,0.2-27.6-11.8-27.8-27c0-2.8,0.3-5.4,1-7.9c4.9-5.1,11.8-8.4,19.4-8.5
			c7.5-0.1,14.4,2.8,19.4,7.6c-5.1-5.1-12.2-8.3-20-8.2c-12.8,0.2-23.4,9.1-26.2,21c-0.5,2.2-0.8,4.5-0.7,6.8
			C355.5,232.2,356.1,235.3,357.1,238.1z"/>
		<path fill="#F0DABD" d="M363.5,210.2c-0.7,2.5-1.1,5.2-1,7.9c0.2,15.1,12.7,27.2,27.8,27c7.1-0.1,13.6-3,18.4-7.5
			c0.4-0.3,0.7-0.7,1-1c0.7-2.5,1.1-5.2,1-7.9c-0.1-7.6-3.3-14.5-8.4-19.3c-5-4.8-11.9-7.8-19.4-7.6
			C375.3,201.8,368.4,205.1,363.5,210.2z"/>
	</g>
</g>
</svg>
